<svg xmlns="http://www.w3.org/2000/svg" xmlns:xlink="http://www.w3.org/1999/xlink" version="1.1" width="256" height="256" viewBox="0 0 256 256" xml:space="preserve">

<defs>
</defs>
<g style="stroke: none; stroke-width: 0; stroke-dasharray: none; stroke-linecap: butt; stroke-linejoin: miter; stroke-miterlimit: 10; fill: none; fill-rule: nonzero; opacity: 1;" transform="translate(1.4065934065934016 1.4065934065934016) scale(2.81 2.81)" >
	<path d="M 11.979 35.357 c -1.32 0 -2.652 -0.39 -3.813 -1.203 c -3.009 -2.107 -3.743 -6.27 -1.636 -9.28 c 2.107 -3.008 6.271 -3.742 9.279 -1.636 c 3.009 2.107 3.744 6.271 1.637 9.28 l 0 0 C 16.152 34.367 14.082 35.357 11.979 35.357 z M 11.996 24.036 c -1.471 0 -2.92 0.693 -3.826 1.987 c -1.475 2.106 -0.961 5.019 1.145 6.494 c 1.02 0.714 2.255 0.989 3.484 0.772 c 1.227 -0.216 2.295 -0.897 3.01 -1.917 c 1.475 -2.106 0.961 -5.019 -1.145 -6.494 C 13.851 24.309 12.919 24.036 11.996 24.036 z" style="stroke: none; stroke-width: 1; stroke-dasharray: none; stroke-linecap: butt; stroke-linejoin: miter; stroke-miterlimit: 10; fill: rgb(0,0,0); fill-rule: nonzero; opacity: 1;" transform=" matrix(1 0 0 1 0 0) " stroke-linecap="round" />
	<path d="M 12.002 67.968 c -0.389 0 -0.78 -0.034 -1.17 -0.104 c -1.753 -0.309 -3.28 -1.282 -4.301 -2.74 c -1.021 -1.457 -1.413 -3.226 -1.104 -4.979 c 0.309 -1.752 1.282 -3.279 2.74 -4.301 c 3.01 -2.104 7.172 -1.372 9.28 1.637 l 0 0 c 2.106 3.01 1.372 7.172 -1.636 9.279 C 14.678 67.554 13.357 67.968 12.002 67.968 z M 11.982 56.642 c -0.923 0 -1.855 0.273 -2.668 0.842 c -1.02 0.714 -1.701 1.783 -1.917 3.01 c -0.216 1.227 0.058 2.464 0.772 3.484 c 0.714 1.021 1.783 1.701 3.01 1.917 c 1.225 0.22 2.463 -0.058 3.484 -0.772 c 2.105 -1.475 2.619 -4.388 1.145 -6.494 C 14.902 57.335 13.453 56.642 11.982 56.642 z" style="stroke: none; stroke-width: 1; stroke-dasharray: none; stroke-linecap: butt; stroke-linejoin: miter; stroke-miterlimit: 10; fill: rgb(0,0,0); fill-rule: nonzero; opacity: 1;" transform=" matrix(1 0 0 1 0 0) " stroke-linecap="round" />
	<path d="M 46.888 45 l 42.685 -29.888 c 0.453 -0.317 0.563 -0.94 0.246 -1.393 c -1.482 -2.116 -3.699 -3.529 -6.244 -3.978 c -2.542 -0.448 -5.111 0.12 -7.227 1.602 L 38.18 38.069 c -0.423 -0.075 -0.826 -0.112 -1.222 -0.112 c -1.288 0 -2.506 0.341 -3.567 0.937 l -9.88 -6.918 c 1.388 -4.871 -0.458 -10.167 -4.646 -13.099 c -2.623 -1.837 -5.804 -2.543 -8.958 -1.986 c -3.153 0.556 -5.901 2.307 -7.738 4.93 c -1.836 2.623 -2.542 5.805 -1.986 8.958 s 2.307 5.901 4.93 7.738 c 4.152 2.907 9.729 2.854 13.824 -0.06 L 28.281 45 l -9.344 6.543 c -4.093 -2.913 -9.669 -2.966 -13.824 -0.06 c -2.623 1.837 -4.374 4.585 -4.93 7.738 s 0.149 6.335 1.986 8.957 c 2.33 3.327 6.054 5.108 9.837 5.108 c 2.374 0 4.771 -0.702 6.859 -2.164 c 4.188 -2.933 6.033 -8.229 4.646 -13.098 l 9.391 -6.576 c 1.216 0.819 2.604 1.248 4.057 1.248 c 0.666 0 1.302 -0.113 1.918 -0.279 l 37.473 26.238 c 1.644 1.151 3.561 1.752 5.526 1.752 c 0.564 0 1.133 -0.05 1.7 -0.149 c 2.545 -0.449 4.763 -1.861 6.244 -3.979 c 0.316 -0.452 0.207 -1.075 -0.246 -1.393 L 46.888 45 z M 18.282 36.443 c -3.445 2.802 -8.388 2.98 -12.021 0.435 c -2.186 -1.53 -3.645 -3.82 -4.107 -6.447 c -0.463 -2.627 0.124 -5.277 1.655 -7.463 c 1.53 -2.186 3.819 -3.644 6.447 -4.107 c 2.626 -0.464 5.277 0.125 7.463 1.655 c 3.664 2.565 5.175 7.303 3.674 11.522 c -0.15 0.424 0 0.896 0.369 1.154 l 9.965 6.978 c -0.92 0.94 -1.589 2.129 -1.904 3.467 L 19.486 36.4 C 19.121 36.145 18.628 36.161 18.282 36.443 z M 33.557 49.445 c -0.347 -0.286 -0.842 -0.308 -1.211 -0.049 L 21.76 56.809 c -0.368 0.258 -0.519 0.73 -0.369 1.154 c 1.501 4.218 -0.01 8.956 -3.674 11.521 c -4.511 3.16 -10.751 2.058 -13.91 -2.452 c -1.531 -2.186 -2.118 -4.836 -1.655 -7.463 c 0.463 -2.628 1.922 -4.917 4.107 -6.447 c 1.712 -1.199 3.716 -1.794 5.716 -1.794 c 2.244 0 4.484 0.748 6.305 2.229 c 0.346 0.28 0.838 0.299 1.205 0.043 l 11.753 -8.229 c 0.232 -0.163 0.384 -0.416 0.419 -0.697 c 0.331 -2.689 2.609 -4.716 5.3 -4.716 c 0.377 0 0.775 0.05 1.215 0.152 c 0.276 0.064 0.567 0.008 0.801 -0.154 l 38.521 -26.973 c 1.68 -1.176 3.716 -1.629 5.733 -1.271 c 1.686 0.297 3.191 1.128 4.326 2.373 l -44.902 31.44 c -0.221 0.155 -0.371 0.393 -0.414 0.66 c -0.422 2.615 -2.643 4.514 -5.281 4.514 C 35.723 50.697 34.547 50.265 33.557 49.445 z M 83.229 78.29 c -2.019 0.354 -4.055 -0.097 -5.733 -1.271 L 40.999 51.463 c 1.55 -1.025 2.709 -2.612 3.133 -4.534 l 1.012 -0.709 l 42.411 29.696 C 86.42 77.161 84.915 77.992 83.229 78.29 z" style="stroke: none; stroke-width: 1; stroke-dasharray: none; stroke-linecap: butt; stroke-linejoin: miter; stroke-miterlimit: 10; fill: rgb(0,0,0); fill-rule: nonzero; opacity: 1;" transform=" matrix(1 0 0 1 0 0) " stroke-linecap="round" />
	<path d="M 36.958 48.45 c -1.722 0 -3.124 -1.401 -3.124 -3.124 s 1.401 -3.123 3.124 -3.123 s 3.124 1.401 3.124 3.123 S 38.68 48.45 36.958 48.45 z M 36.958 44.204 c -0.62 0 -1.124 0.504 -1.124 1.123 c 0 0.62 0.504 1.124 1.124 1.124 s 1.124 -0.504 1.124 -1.124 C 38.082 44.708 37.578 44.204 36.958 44.204 z" style="stroke: none; stroke-width: 1; stroke-dasharray: none; stroke-linecap: butt; stroke-linejoin: miter; stroke-miterlimit: 10; fill: rgb(0,0,0); fill-rule: nonzero; opacity: 1;" transform=" matrix(1 0 0 1 0 0) " stroke-linecap="round" />
</g>
</svg>