<svg xmlns="http://www.w3.org/2000/svg" xmlns:xlink="http://www.w3.org/1999/xlink" version="1.1" width="256" height="256" viewBox="0 0 256 256" xml:space="preserve">

<defs>
</defs>
<g style="stroke: none; stroke-width: 0; stroke-dasharray: none; stroke-linecap: butt; stroke-linejoin: miter; stroke-miterlimit: 10; fill: none; fill-rule: nonzero; opacity: 1;" transform="translate(1.4065934065934016 1.4065934065934016) scale(2.81 2.81)" >
	<path d="M 82.526 90 H 7.473 c -2.848 0 -5.166 -2.318 -5.166 -5.166 V 32.822 h 85.385 v 52.012 C 87.693 87.682 85.375 90 82.526 90 z M 5.274 35.789 v 49.045 c 0 1.213 0.986 2.199 2.199 2.199 h 75.053 c 1.213 0 2.199 -0.986 2.199 -2.199 V 35.789 H 5.274 z M 50.098 80.943 H 39.902 c -1.882 0 -3.413 -1.531 -3.413 -3.412 V 67.335 c 0 -1.881 1.531 -3.412 3.413 -3.412 h 10.195 c 1.881 0 3.412 1.531 3.412 3.412 v 10.196 C 53.51 79.413 51.979 80.943 50.098 80.943 z M 39.902 66.89 c -0.241 0 -0.446 0.204 -0.446 0.445 v 10.196 c 0 0.241 0.204 0.445 0.446 0.445 h 10.195 c 0.241 0 0.445 -0.204 0.445 -0.445 V 67.335 c 0 -0.241 -0.204 -0.445 -0.445 -0.445 H 39.902 z M 27.101 80.943 H 16.905 c -1.881 0 -3.412 -1.531 -3.412 -3.412 V 67.335 c 0 -1.881 1.531 -3.412 3.412 -3.412 h 10.196 c 1.881 0 3.412 1.531 3.412 3.412 v 10.196 C 30.513 79.413 28.983 80.943 27.101 80.943 z M 16.905 66.89 c -0.241 0 -0.445 0.204 -0.445 0.445 v 10.196 c 0 0.241 0.204 0.445 0.445 0.445 h 10.196 c 0.241 0 0.445 -0.204 0.445 -0.445 V 67.335 c 0 -0.241 -0.204 -0.445 -0.445 -0.445 H 16.905 z M 73.094 60.502 H 62.899 c -1.881 0 -3.412 -1.531 -3.412 -3.412 V 46.894 c 0 -1.882 1.531 -3.413 3.412 -3.413 h 10.195 c 1.882 0 3.413 1.531 3.413 3.413 v 10.195 C 76.507 58.971 74.976 60.502 73.094 60.502 z M 62.899 46.448 c -0.241 0 -0.445 0.205 -0.445 0.446 v 10.195 c 0 0.241 0.204 0.445 0.445 0.445 h 10.195 c 0.241 0 0.446 -0.204 0.446 -0.445 V 46.894 c 0 -0.241 -0.205 -0.446 -0.446 -0.446 H 62.899 z M 50.098 60.502 H 39.902 c -1.882 0 -3.413 -1.531 -3.413 -3.412 V 46.894 c 0 -1.882 1.531 -3.413 3.413 -3.413 h 10.195 c 1.881 0 3.412 1.531 3.412 3.413 v 10.195 C 53.51 58.971 51.979 60.502 50.098 60.502 z M 39.902 46.448 c -0.241 0 -0.446 0.205 -0.446 0.446 v 10.195 c 0 0.241 0.204 0.445 0.446 0.445 h 10.195 c 0.241 0 0.445 -0.204 0.445 -0.445 V 46.894 c 0 -0.241 -0.204 -0.446 -0.445 -0.446 H 39.902 z M 27.101 60.502 H 16.905 c -1.881 0 -3.412 -1.531 -3.412 -3.412 V 46.894 c 0 -1.882 1.531 -3.413 3.412 -3.413 h 10.196 c 1.881 0 3.412 1.531 3.412 3.413 v 10.195 C 30.513 58.971 28.983 60.502 27.101 60.502 z M 16.905 46.448 c -0.241 0 -0.445 0.205 -0.445 0.446 v 10.195 c 0 0.241 0.204 0.445 0.445 0.445 h 10.196 c 0.241 0 0.445 -0.204 0.445 -0.445 V 46.894 c 0 -0.241 -0.204 -0.446 -0.445 -0.446 H 16.905 z" style="stroke: none; stroke-width: 1; stroke-dasharray: none; stroke-linecap: butt; stroke-linejoin: miter; stroke-miterlimit: 10; fill: rgb(0,0,0); fill-rule: nonzero; opacity: 1;" transform=" matrix(1 0 0 1 0 0) " stroke-linecap="round" />
	<path d="M 87.693 29.876 H 2.307 V 16.269 c 0 -2.849 2.318 -5.166 5.166 -5.166 h 12.842 V 8.524 c 0 -4.7 3.824 -8.524 8.524 -8.524 c 4.701 0 8.525 3.824 8.525 8.524 v 2.578 h 15.272 V 8.524 C 52.636 3.824 56.46 0 61.16 0 s 8.524 3.824 8.524 8.524 v 2.578 h 12.842 c 2.848 0 5.166 2.318 5.166 5.166 V 29.876 z M 5.274 26.909 h 79.452 v -10.64 c 0 -1.213 -0.986 -2.199 -2.199 -2.199 H 66.718 V 8.524 c 0 -3.065 -2.493 -5.557 -5.557 -5.557 c -3.065 0 -5.557 2.493 -5.557 5.557 v 5.545 H 34.397 V 8.524 c 0 -3.065 -2.493 -5.557 -5.558 -5.557 s -5.557 2.493 -5.557 5.557 v 5.545 H 7.473 c -1.213 0 -2.199 0.987 -2.199 2.199 V 26.909 z" style="stroke: none; stroke-width: 1; stroke-dasharray: none; stroke-linecap: butt; stroke-linejoin: miter; stroke-miterlimit: 10; fill: rgb(0,0,0); fill-rule: nonzero; opacity: 1;" transform=" matrix(1 0 0 1 0 0) " stroke-linecap="round" />
</g>
</svg>