<svg xmlns="http://www.w3.org/2000/svg" xmlns:xlink="http://www.w3.org/1999/xlink" version="1.1" width="256" height="256" viewBox="0 0 256 256" xml:space="preserve">

<defs>
</defs>
<g style="stroke: none; stroke-width: 0; stroke-dasharray: none; stroke-linecap: butt; stroke-linejoin: miter; stroke-miterlimit: 10; fill: none; fill-rule: nonzero; opacity: 1;" transform="translate(1.4065934065934016 1.4065934065934016) scale(2.81 2.81)" >
	<path d="M 33.226 79.713 c -0.418 0 -0.818 -0.175 -1.103 -0.482 L -0.103 44.308 c -0.562 -0.609 -0.523 -1.558 0.085 -2.12 c 0.609 -0.561 1.559 -0.523 2.12 0.085 l 31.07 33.669 l 54.679 -65.121 c 0.532 -0.634 1.479 -0.717 2.113 -0.185 c 0.634 0.533 0.717 1.479 0.184 2.113 L 34.375 79.178 c -0.277 0.33 -0.683 0.524 -1.114 0.535 C 33.249 79.713 33.237 79.713 33.226 79.713 z" style="stroke: none; stroke-width: 1; stroke-dasharray: none; stroke-linecap: butt; stroke-linejoin: miter; stroke-miterlimit: 10; fill: rgb(0,0,0); fill-rule: nonzero; opacity: 1;" transform=" matrix(1 0 0 1 0 0) " stroke-linecap="round" />
</g>
</svg>