<svg xmlns="http://www.w3.org/2000/svg" xmlns:xlink="http://www.w3.org/1999/xlink" version="1.1" width="256" height="256" viewBox="0 0 256 256" xml:space="preserve">

<defs>
</defs>
<g style="stroke: none; stroke-width: 0; stroke-dasharray: none; stroke-linecap: butt; stroke-linejoin: miter; stroke-miterlimit: 10; fill: none; fill-rule: nonzero; opacity: 1;" transform="translate(1.4065934065934016 1.4065934065934016) scale(2.81 2.81)" >
	<path d="M 52.976 74.544 L 41.91 67.978 c -0.844 -0.502 -1.906 -0.525 -2.771 -0.06 l -7.585 4.071 c -0.319 0.17 -0.706 0.114 -0.963 -0.142 L 17.933 59.189 c -0.253 -0.252 -0.311 -0.649 -0.142 -0.963 l 4.072 -7.584 c 0.464 -0.865 0.441 -1.926 -0.06 -2.77 l -6.567 -11.066 c -0.726 -1.223 -2.252 -1.715 -3.552 -1.144 c -2.177 0.956 -6.085 2.662 -7.803 3.335 c -0.547 0.214 -1.002 0.528 -1.353 0.932 c -7.007 8.084 1.66 23.625 12.679 34.645 c 8.263 8.263 19.068 15.204 27.366 15.202 c 2.767 0 5.257 -0.772 7.278 -2.524 c 0.404 -0.35 0.718 -0.805 0.932 -1.352 c 0.706 -1.801 2.568 -6.056 3.336 -7.803 C 54.691 76.796 54.198 75.268 52.976 74.544 z M 52.288 77.292 c -0.96 2.183 -2.673 6.109 -3.368 7.878 c -0.095 0.242 -0.222 0.434 -0.379 0.57 c -6.801 5.896 -21.205 -1.866 -31.919 -12.579 C 5.908 62.446 -1.854 48.041 4.041 41.241 c 0.136 -0.157 0.328 -0.284 0.571 -0.38 c 1.751 -0.687 5.687 -2.404 7.878 -3.367 c 0.105 -0.046 0.215 -0.068 0.323 -0.068 c 0.28 0 0.551 0.146 0.702 0.401 l 6.567 11.067 c 0.145 0.244 0.152 0.551 0.018 0.802 l -4.072 7.584 c -0.592 1.103 -0.395 2.439 0.49 3.324 l 12.658 12.659 c 0.887 0.887 2.222 1.081 3.325 0.489 l 7.585 -4.071 c 0.25 -0.135 0.558 -0.129 0.803 0.018 l 11.067 6.567 C 52.31 76.476 52.452 76.916 52.288 77.292 z" style="stroke: none; stroke-width: 1; stroke-dasharray: none; stroke-linecap: butt; stroke-linejoin: miter; stroke-miterlimit: 10; fill: rgb(29,29,27); fill-rule: nonzero; opacity: 1;" transform=" matrix(1 0 0 1 0 0) " stroke-linecap="round" />
	<path d="M 48.189 36.728 c -0.218 0.305 -0.246 0.706 -0.074 1.039 c 0.172 0.333 0.515 0.542 0.889 0.542 h 7.447 c 0.553 0 1 -0.448 1 -1 c 0 -0.552 -0.447 -1 -1 -1 h -5.508 l 5.668 -7.97 c 0.968 -1.36 1.113 -3.143 0.377 -4.651 c -0.729 -1.494 -2.145 -2.43 -3.794 -2.504 l -0.222 -0.005 c -2.74 0 -4.97 2.229 -4.97 4.97 c 0 0.552 0.447 1 1 1 c 0.553 0 1 -0.448 1 -1 c 0 -1.637 1.332 -2.969 2.969 -2.969 l 0.136 0.003 c 0.901 0.041 1.679 0.557 2.081 1.382 c 0.421 0.862 0.343 1.84 -0.208 2.614 L 48.189 36.728 z" style="stroke: none; stroke-width: 1; stroke-dasharray: none; stroke-linecap: butt; stroke-linejoin: miter; stroke-miterlimit: 10; fill: rgb(29,29,27); fill-rule: nonzero; opacity: 1;" transform=" matrix(1 0 0 1 0 0) " stroke-linecap="round" />
	<path d="M 71.531 33.495 h -1.828 V 22.177 c 0 -0.435 -0.28 -0.819 -0.694 -0.953 c -0.414 -0.131 -0.866 0.016 -1.12 0.369 l -8.838 12.318 c -0.219 0.305 -0.248 0.706 -0.077 1.04 c 0.171 0.334 0.515 0.544 0.89 0.544 h 7.837 v 1.812 c 0 0.552 0.447 1 1 1 c 0.553 0 1 -0.448 1 -1 v -1.812 h 1.828 c 0.553 0 1 -0.448 1 -1 C 72.532 33.943 72.084 33.495 71.531 33.495 z M 67.703 33.495 h -5.888 l 5.888 -8.207 V 33.495 z" style="stroke: none; stroke-width: 1; stroke-dasharray: none; stroke-linecap: butt; stroke-linejoin: miter; stroke-miterlimit: 10; fill: rgb(29,29,27); fill-rule: nonzero; opacity: 1;" transform=" matrix(1 0 0 1 0 0) " stroke-linecap="round" />
	<path d="M 79.84 44.98 h -2.079 c 7.432 -9.07 6.92 -22.517 -1.543 -30.98 c -4.365 -4.366 -10.169 -6.77 -16.344 -6.77 S 47.897 9.635 43.532 14 c -4.366 4.366 -6.77 10.17 -6.77 16.344 c 0 6.173 2.404 11.978 6.77 16.344 c 4.449 4.45 10.312 6.796 16.301 6.796 c 3.123 0 6.282 -0.639 9.29 -1.95 c 0.507 -0.221 0.739 -0.811 0.518 -1.317 c -0.22 -0.505 -0.809 -0.739 -1.317 -0.518 c -8.015 3.496 -17.192 1.76 -23.377 -4.426 c -8.232 -8.232 -8.232 -21.627 0 -29.858 c 3.988 -3.987 9.289 -6.184 14.929 -6.184 s 10.941 2.196 14.929 6.184 c 7.61 7.61 8.169 19.625 1.708 27.902 v -1.666 c 0 -0.552 -0.447 -1 -1 -1 c -0.553 0 -1 0.448 -1 1 v 4.329 c 0 0.13 0.027 0.26 0.077 0.382 c 0.101 0.245 0.296 0.44 0.541 0.541 c 0.122 0.051 0.252 0.077 0.382 0.077 h 4.329 c 0.553 0 1 -0.447 1 -1 C 80.841 45.428 80.393 44.98 79.84 44.98 z" style="stroke: none; stroke-width: 1; stroke-dasharray: none; stroke-linecap: butt; stroke-linejoin: miter; stroke-miterlimit: 10; fill: rgb(29,29,27); fill-rule: nonzero; opacity: 1;" transform=" matrix(1 0 0 1 0 0) " stroke-linecap="round" />
	<path d="M 81.19 9.03 c -5.693 -5.693 -13.262 -8.829 -21.314 -8.829 S 44.254 3.336 38.561 9.03 c -9.364 9.364 -11.493 23.937 -5.242 35.572 l -3.549 14.64 c -0.083 0.339 0.018 0.697 0.265 0.943 c 0.19 0.19 0.445 0.293 0.707 0.293 c 0.079 0 0.158 -0.009 0.236 -0.028 l 14.64 -3.549 c 11.636 6.252 26.209 4.123 35.572 -5.241 C 92.943 39.906 92.943 20.783 81.19 9.03 z M 79.775 50.244 c -8.829 8.828 -22.618 10.769 -33.532 4.718 c -0.15 -0.082 -0.317 -0.125 -0.486 -0.125 c -0.079 0 -0.158 0.01 -0.236 0.028 l -13.421 3.253 l 3.253 -13.421 c 0.059 -0.244 0.024 -0.502 -0.097 -0.721 c -6.051 -10.915 -4.11 -24.704 4.719 -33.533 c 5.315 -5.315 12.382 -8.243 19.9 -8.243 s 14.584 2.927 19.9 8.243 C 90.747 21.417 90.747 39.272 79.775 50.244 z" style="stroke: none; stroke-width: 1; stroke-dasharray: none; stroke-linecap: butt; stroke-linejoin: miter; stroke-miterlimit: 10; fill: rgb(29,29,27); fill-rule: nonzero; opacity: 1;" transform=" matrix(1 0 0 1 0 0) " stroke-linecap="round" />
</g>
</svg>