<svg xmlns="http://www.w3.org/2000/svg" xmlns:xlink="http://www.w3.org/1999/xlink" version="1.1" width="256" height="256" viewBox="0 0 256 256" xml:space="preserve">

<defs>
</defs>
<g style="stroke: none; stroke-width: 0; stroke-dasharray: none; stroke-linecap: butt; stroke-linejoin: miter; stroke-miterlimit: 10; fill: none; fill-rule: nonzero; opacity: 1;" transform="translate(1.4065934065934016 1.4065934065934016) scale(2.81 2.81)" >
	<path d="M 67.602 68.37 H 13.184 c -2.522 0 -4.574 -2.052 -4.574 -4.574 v -1.091 c 0 -2.522 2.052 -4.574 4.574 -4.574 h 8.389 C 8.555 51.595 0 38.162 0 23.114 c 0 -0.82 0.664 -1.484 1.484 -1.484 h 75.383 c 0.04 0 0.079 0.001 0.118 0.005 c 0.059 -0.003 0.107 -0.005 0.156 -0.005 C 84.231 21.63 90 27.399 90 34.489 s -5.769 12.859 -12.859 12.859 c -2.13 0 -4.197 -0.521 -6.054 -1.517 c -3.74 5.248 -8.662 9.454 -14.329 12.3 h 10.843 c 2.522 0 4.574 2.052 4.574 4.574 v 1.091 C 72.176 66.317 70.123 68.37 67.602 68.37 z M 13.184 61.097 c -0.886 0 -1.607 0.721 -1.607 1.607 v 1.091 c 0 0.887 0.721 1.607 1.607 1.607 h 54.417 c 0.887 0 1.607 -0.721 1.607 -1.607 v -1.091 c 0 -0.887 -0.721 -1.607 -1.607 -1.607 H 48.6 c -0.748 0 -1.378 -0.555 -1.472 -1.297 c -0.094 -0.741 0.379 -1.436 1.102 -1.623 c 8.694 -2.241 16.22 -7.626 21.191 -15.163 c 0.22 -0.334 0.565 -0.565 0.958 -0.64 c 0.391 -0.074 0.799 0.011 1.127 0.239 c 1.663 1.157 3.612 1.768 5.635 1.768 c 5.454 0 9.892 -4.437 9.892 -9.892 c 0 -5.453 -4.434 -9.889 -9.886 -9.892 l -0.241 0.014 c -0.08 0.003 -0.162 -0.003 -0.242 -0.014 H 2.997 c 0.645 15.899 11.611 29.584 27.111 33.58 c 0.723 0.186 1.195 0.882 1.102 1.623 c -0.094 0.742 -0.725 1.297 -1.472 1.297 H 13.184 z M 77.724 39.039 c -2.727 0 -4.945 -2.219 -4.945 -4.945 c 0 -2.727 2.218 -4.945 4.945 -4.945 c 2.727 0 4.945 2.219 4.945 4.945 C 82.669 36.821 80.451 39.039 77.724 39.039 z M 77.724 32.116 c -1.09 0 -1.978 0.887 -1.978 1.978 s 0.888 1.978 1.978 1.978 c 1.09 0 1.978 -0.887 1.978 -1.978 S 78.815 32.116 77.724 32.116 z" style="stroke: none; stroke-width: 1; stroke-dasharray: none; stroke-linecap: butt; stroke-linejoin: miter; stroke-miterlimit: 10; fill: rgb(0,0,0); fill-rule: nonzero; opacity: 1;" transform=" matrix(1 0 0 1 0 0) " stroke-linecap="round" />
</g>
</svg>