<svg xmlns="http://www.w3.org/2000/svg" xmlns:xlink="http://www.w3.org/1999/xlink" version="1.1" width="256" height="256" viewBox="0 0 256 256" xml:space="preserve">

<defs>
</defs>
<g style="stroke: none; stroke-width: 0; stroke-dasharray: none; stroke-linecap: butt; stroke-linejoin: miter; stroke-miterlimit: 10; fill: none; fill-rule: nonzero; opacity: 1;" transform="translate(1.4065934065934016 1.4065934065934016) scale(2.81 2.81)" >
	<path d="M 89.227 29.042 c -1.467 -5.37 -4.981 -9.556 -9.642 -11.482 c -3.499 -1.449 -7.462 -1.534 -11.296 -0.288 l -0.251 -3.276 c -0.04 -0.521 -0.475 -0.923 -0.997 -0.923 H 12.127 c -0.522 0 -0.957 0.402 -0.997 0.923 L 9.843 30.78 c -0.833 10.856 0.862 21.881 4.894 31.992 H 1 c -0.552 0 -1 0.447 -1 1 c 0 7.254 5.901 13.155 13.155 13.155 h 54.293 c 7.253 0 13.154 -5.901 13.154 -13.155 c 0 -0.553 -0.447 -1 -1 -1 H 64.43 c 0.501 -1.256 0.965 -2.527 1.393 -3.81 c 0.949 0.179 1.921 0.271 2.901 0.271 c 7.951 0 15.699 -5.816 19.278 -14.473 C 90.146 39.581 90.58 33.999 89.227 29.042 z M 69.325 30.78 l -0.254 -3.311 c 0.23 -0.155 0.457 -0.318 0.694 -0.453 c 0.968 -0.554 2.47 -1.215 4.122 -1.215 c 0.743 0 1.456 0.139 2.119 0.413 c 2.443 1.01 3.462 3.551 3.851 4.976 c 0.807 2.952 0.487 6.539 -0.878 9.839 c -2.217 5.362 -6.773 9.009 -10.751 8.784 C 69.434 43.556 69.813 37.139 69.325 30.78 z M 67.448 74.928 H 13.155 c -5.814 0 -10.604 -4.471 -11.111 -10.155 h 14.178 h 46.723 h 15.613 C 78.051 70.457 73.262 74.928 67.448 74.928 z M 16.889 62.772 c -4.136 -10.028 -5.882 -21.022 -5.052 -31.839 l 1.217 -15.861 h 16.87 v 18.777 h -1.336 c -2.802 0 -5.082 2.28 -5.082 5.082 v 11.896 c 0 0.553 0.448 1 1 1 H 37.05 c 0.552 0 1 -0.447 1 -1 V 38.931 c 0 -2.802 -2.28 -5.082 -5.082 -5.082 h -1.044 V 15.072 h 34.19 l 1.217 15.861 c 0.829 10.817 -0.916 21.811 -5.052 31.839 H 16.889 z M 32.968 35.849 c 1.699 0 3.082 1.382 3.082 3.082 v 10.896 H 25.506 V 38.931 c 0 -1.699 1.382 -3.082 3.082 -3.082 H 32.968 z M 86.155 43.996 c -3.274 7.918 -10.279 13.237 -17.431 13.237 c -0.773 0 -1.532 -0.088 -2.282 -0.215 c 0.522 -1.726 0.984 -3.47 1.375 -5.23 c 0.232 0.021 0.464 0.038 0.698 0.038 c 4.697 0 9.852 -4.082 12.312 -10.031 c 1.531 -3.703 1.881 -7.76 0.96 -11.131 c -0.486 -1.778 -1.784 -4.96 -5.017 -6.297 c -0.906 -0.374 -1.876 -0.564 -2.883 -0.564 c -2.022 0 -3.806 0.75 -4.989 1.41 l -0.451 -5.876 c 3.523 -1.259 7.18 -1.25 10.373 0.072 c 4.084 1.688 7.174 5.393 8.477 10.162 C 88.535 34.1 88.13 39.224 86.155 43.996 z" style="stroke: none; stroke-width: 1; stroke-dasharray: none; stroke-linecap: butt; stroke-linejoin: miter; stroke-miterlimit: 10; fill: rgb(0,0,0); fill-rule: nonzero; opacity: 1;" transform=" matrix(1 0 0 1 0 0) " stroke-linecap="round" />
</g>
</svg>