<svg xmlns="http://www.w3.org/2000/svg" xmlns:xlink="http://www.w3.org/1999/xlink" version="1.1" width="256" height="256" viewBox="0 0 256 256" xml:space="preserve">

<defs>
</defs>
<g style="stroke: none; stroke-width: 0; stroke-dasharray: none; stroke-linecap: butt; stroke-linejoin: miter; stroke-miterlimit: 10; fill: none; fill-rule: nonzero; opacity: 1;" transform="translate(1.4065934065934016 1.4065934065934016) scale(2.81 2.81)" >
	<path d="M 83.596 26.702 h -1.011 c -1.706 0 -3.255 0.675 -4.404 1.767 v -2.943 c 0 -3.531 -2.873 -6.404 -6.405 -6.404 h -4.633 c -3.531 0 -6.404 2.873 -6.404 6.404 v 11.027 H 29.262 V 25.526 c 0 -3.531 -2.873 -6.404 -6.404 -6.404 h -4.633 c -3.531 0 -6.404 2.873 -6.404 6.404 v 2.943 c -1.149 -1.092 -2.698 -1.767 -4.404 -1.767 H 6.404 C 2.873 26.702 0 29.575 0 33.106 v 23.788 c 0 3.532 2.873 6.405 6.404 6.405 h 1.011 c 1.706 0 3.255 -0.675 4.404 -1.767 v 2.942 c 0 3.532 2.873 6.405 6.404 6.405 h 4.633 c 3.531 0 6.404 -2.873 6.404 -6.405 V 53.447 h 31.477 v 11.026 c 0 3.532 2.873 6.405 6.404 6.405 h 4.633 c 3.532 0 6.405 -2.873 6.405 -6.405 v -2.942 c 1.149 1.092 2.698 1.767 4.404 1.767 h 1.011 c 3.531 0 6.404 -2.873 6.404 -6.405 V 33.106 C 90 29.575 87.127 26.702 83.596 26.702 z M 7.416 61.299 H 6.404 C 3.976 61.299 2 59.322 2 56.894 V 33.106 c 0 -2.429 1.976 -4.404 4.404 -4.404 h 1.011 c 2.429 0 4.404 1.976 4.404 4.404 v 23.788 C 11.82 59.322 9.844 61.299 7.416 61.299 z M 27.262 64.474 c 0 2.429 -1.976 4.405 -4.404 4.405 h -4.633 c -2.429 0 -4.404 -1.977 -4.404 -4.405 v -7.58 V 33.106 v -7.58 c 0 -2.429 1.976 -4.404 4.404 -4.404 h 4.633 c 2.429 0 4.404 1.976 4.404 4.404 v 11.027 v 16.895 V 64.474 z M 29.262 51.447 V 46 h 24.373 c 0.553 0 1 -0.448 1 -1 s -0.447 -1 -1 -1 H 29.262 v -5.447 h 31.477 v 12.895 H 29.262 z M 76.181 64.474 c 0 2.429 -1.977 4.405 -4.405 4.405 h -4.633 c -2.429 0 -4.404 -1.977 -4.404 -4.405 V 53.447 V 36.553 V 25.526 c 0 -2.429 1.976 -4.404 4.404 -4.404 h 4.633 c 2.429 0 4.405 1.976 4.405 4.404 v 7.58 v 23.788 V 64.474 z M 88 56.894 c 0 2.429 -1.976 4.405 -4.404 4.405 h -1.011 c -2.429 0 -4.404 -1.977 -4.404 -4.405 V 33.106 c 0 -2.429 1.976 -4.404 4.404 -4.404 h 1.011 c 2.429 0 4.404 1.976 4.404 4.404 V 56.894 z" style="stroke: none; stroke-width: 1; stroke-dasharray: none; stroke-linecap: butt; stroke-linejoin: miter; stroke-miterlimit: 10; fill: rgb(0,0,0); fill-rule: nonzero; opacity: 1;" transform=" matrix(1 0 0 1 0 0) " stroke-linecap="round" />
</g>
</svg>