<svg xmlns="http://www.w3.org/2000/svg" xmlns:xlink="http://www.w3.org/1999/xlink" version="1.1" width="256" height="256" viewBox="0 0 256 256" xml:space="preserve">

<defs>
</defs>
<g style="stroke: none; stroke-width: 0; stroke-dasharray: none; stroke-linecap: butt; stroke-linejoin: miter; stroke-miterlimit: 10; fill: none; fill-rule: nonzero; opacity: 1;" transform="translate(1.4065934065934016 1.4065934065934016) scale(2.81 2.81)" >
	<path d="M 79.843 38.663 h -1.969 C 77.544 22.133 64.966 8.562 48.86 6.669 c 0.498 -0.692 0.8 -1.535 0.8 -2.451 C 49.659 1.892 47.768 0 45.442 0 s -4.218 1.892 -4.218 4.218 c 0 0.875 0.269 1.689 0.728 2.364 c -16.494 1.524 -29.49 15.275 -29.825 32.082 h -1.969 c -2.235 0 -4.053 1.818 -4.053 4.053 s 1.818 4.053 4.053 4.053 h 23.977 c -0.24 0.354 -0.419 0.753 -0.5 1.194 c -0.83 4.543 -2.19 7.989 -4.166 10.545 c -2.927 3.878 -3.923 7.183 -4.582 11.257 c -0.042 0.265 -0.176 0.501 -0.36 0.651 l -1.026 0.807 l -1.415 -1.705 c -0.353 -0.425 -0.982 -0.483 -1.408 -0.131 l -6.789 5.633 c -0.204 0.169 -0.333 0.413 -0.357 0.677 c -0.025 0.265 0.057 0.527 0.226 0.731 l 10.96 13.21 C 24.917 89.877 25.202 90 25.489 90 c 0.225 0 0.451 -0.075 0.638 -0.23 l 6.789 -5.633 c 0.204 -0.169 0.333 -0.413 0.357 -0.677 c 0.025 -0.265 -0.057 -0.527 -0.226 -0.731 l -1.902 -2.292 l 2.525 -2.096 c 0.68 -0.564 1.422 -1.054 2.208 -1.455 l 7.451 -3.815 c 0.742 -0.379 1.439 -0.846 2.072 -1.388 l 3.438 -2.938 c 1.069 -0.913 1.935 -2.011 2.57 -3.256 l 8.014 -15.445 c 0.546 -1.07 0.466 -2.297 -0.106 -3.273 h 20.526 c 2.234 0 4.053 -1.818 4.053 -4.053 S 82.077 38.663 79.843 38.663 z M 45.442 2 c 1.222 0 2.217 0.995 2.217 2.218 s -0.995 2.217 -2.217 2.217 c -1.223 0 -2.218 -0.995 -2.218 -2.217 S 44.219 2 45.442 2 z M 45 8.435 c 16.811 0 30.518 13.501 30.874 30.228 H 14.126 C 14.482 21.936 28.189 8.435 45 8.435 z M 25.619 87.592 l -9.683 -11.671 l 5.25 -4.355 l 1.397 1.684 c 0 0.001 0 0.001 0.001 0.002 l 6.383 7.693 c 0 0 0.001 0 0.001 0.001 l 1.901 2.291 L 25.619 87.592 z M 57.645 49.127 l -8.014 15.445 c -0.519 1.018 -1.223 1.909 -2.091 2.652 l -3.439 2.938 c -0.514 0.439 -1.08 0.818 -1.684 1.127 l -7.451 3.815 c -0.915 0.468 -1.781 1.038 -2.574 1.696 l -2.525 2.095 l -5.089 -6.134 l 1 -0.786 c 0.578 -0.473 0.962 -1.146 1.083 -1.894 c 0.625 -3.869 1.513 -6.807 4.196 -10.361 c 2.169 -2.806 3.655 -6.534 4.544 -11.399 c 0.099 -0.543 0.571 -0.942 1.122 -0.948 c 0.005 0 0.009 0 0.014 0 c 0.307 0 0.595 0.119 0.814 0.336 c 0.221 0.22 0.342 0.511 0.341 0.819 c -0.016 4.981 -0.63 8.782 -1.875 11.619 c -0.132 0.302 -0.108 0.648 0.065 0.928 c 0.173 0.28 0.473 0.457 0.801 0.474 c 6.37 0.329 13.321 -7.946 18.422 -13.979 c 0.46 -0.542 1.257 -0.658 1.853 -0.266 C 57.763 47.704 57.971 48.489 57.645 49.127 z M 38.432 59.44 c 0.967 -2.872 1.446 -6.46 1.46 -10.904 c 0.002 -0.639 -0.186 -1.248 -0.537 -1.767 h 14.008 C 49.01 51.914 43.333 58.479 38.432 59.44 z M 79.843 44.769 H 10.157 c -1.132 0 -2.053 -0.921 -2.053 -2.053 c 0 -1.132 0.921 -2.053 2.053 -2.053 h 69.686 c 1.132 0 2.053 0.921 2.053 2.053 C 81.896 43.848 80.975 44.769 79.843 44.769 z" style="stroke: none; stroke-width: 1; stroke-dasharray: none; stroke-linecap: butt; stroke-linejoin: miter; stroke-miterlimit: 10; fill: rgb(0,0,0); fill-rule: nonzero; opacity: 1;" transform=" matrix(1 0 0 1 0 0) " stroke-linecap="round" />
	<path d="M 36.7 14.885 c -7.763 2.788 -13.506 9.242 -15.363 17.266 c -0.125 0.538 0.21 1.075 0.749 1.2 c 0.076 0.018 0.152 0.026 0.227 0.026 c 0.455 0 0.866 -0.313 0.973 -0.774 c 1.703 -7.358 6.971 -13.278 14.091 -15.834 c 0.52 -0.187 0.79 -0.76 0.604 -1.279 C 37.792 14.968 37.219 14.697 36.7 14.885 z" style="stroke: none; stroke-width: 1; stroke-dasharray: none; stroke-linecap: butt; stroke-linejoin: miter; stroke-miterlimit: 10; fill: rgb(0,0,0); fill-rule: nonzero; opacity: 1;" transform=" matrix(1 0 0 1 0 0) " stroke-linecap="round" />
</g>
</svg>