<svg xmlns="http://www.w3.org/2000/svg" xmlns:xlink="http://www.w3.org/1999/xlink" version="1.1" width="256" height="256" viewBox="0 0 256 256" xml:space="preserve">

<defs>
</defs>
<g style="stroke: none; stroke-width: 0; stroke-dasharray: none; stroke-linecap: butt; stroke-linejoin: miter; stroke-miterlimit: 10; fill: none; fill-rule: nonzero; opacity: 1;" transform="translate(1.4065934065934016 1.4065934065934016) scale(2.81 2.81)" >
	<path d="M 67.434 57.184 V 4.229 C 67.434 1.897 65.537 0 63.205 0 s -4.229 1.897 -4.229 4.229 v 52.956 c -1.638 0.437 -3.174 1.116 -4.569 2.006 l 0.888 -11.215 c 0.021 -0.278 -0.073 -0.553 -0.263 -0.758 s -0.455 -0.321 -0.734 -0.321 h -2.952 c 0.058 -0.474 0.092 -0.952 0.092 -1.432 c 0 -5.883 -4.274 -10.779 -10.032 -11.61 c -2.005 -3.785 -5.979 -6.201 -10.276 -6.201 c -5.982 0 -10.949 4.532 -11.558 10.423 c -2.311 1.167 -4.815 3.02 -5.268 6.767 c -0.05 0.413 -0.069 1.604 -0.073 2.053 H 11.37 c -0.277 0 -0.542 0.115 -0.731 0.318 c -0.189 0.202 -0.286 0.475 -0.266 0.751 l 2.87 41.104 C 13.279 89.594 13.714 90 14.24 90 h 33.54 h 15.426 c 0.324 0 0.628 -0.157 0.815 -0.422 l 4.426 -6.24 l 4.185 6.221 C 72.817 89.834 73.128 90 73.461 90 h 5.17 c 0.553 0 1 -0.447 1 -1 V 73.038 C 79.631 65.445 74.445 59.057 67.434 57.184 z M 60.977 4.229 C 60.977 3 61.977 2 63.205 2 s 2.229 1 2.229 2.229 v 52.553 c -0.731 -0.1 -1.471 -0.169 -2.229 -0.169 s -1.498 0.07 -2.229 0.169 V 4.229 z M 16.29 45.083 c 0.297 -2.453 1.647 -4.033 4.662 -5.455 c 0.333 -0.157 0.553 -0.484 0.572 -0.852 c 0.269 -5.116 4.488 -9.124 9.607 -9.124 c 3.713 0 7.134 2.18 8.717 5.554 c 0.15 0.319 0.457 0.537 0.809 0.57 c 5.007 0.486 8.783 4.651 8.783 9.687 c 0 0.482 -0.048 0.959 -0.118 1.432 H 16.231 C 16.236 46.369 16.259 45.338 16.29 45.083 z M 12.442 48.896 h 40.775 l -0.944 11.917 c -3.362 3.01 -5.493 7.368 -5.493 12.225 V 88 H 15.172 L 12.442 48.896 z M 77.631 88 h -3.638 l -4.695 -6.98 c -0.184 -0.272 -0.489 -0.438 -0.817 -0.441 c -0.005 0 -0.009 0 -0.013 0 c -0.324 0 -0.628 0.157 -0.815 0.422 l -4.964 7 H 48.779 V 73.038 c 0 -7.954 6.472 -14.426 14.426 -14.426 s 14.426 6.472 14.426 14.426 V 88 z" style="stroke: none; stroke-width: 1; stroke-dasharray: none; stroke-linecap: butt; stroke-linejoin: miter; stroke-miterlimit: 10; fill: rgb(0,0,0); fill-rule: nonzero; opacity: 1;" transform=" matrix(1 0 0 1 0 0) " stroke-linecap="round" />
	<path d="M 44.316 52.846 c -0.552 0 -1 0.447 -1 1 c 0 3.052 -2.483 5.534 -5.535 5.534 h -9.894 c -3.052 0 -5.535 -2.482 -5.535 -5.534 c 0 -0.553 -0.448 -1 -1 -1 s -1 0.447 -1 1 c 0 4.154 3.38 7.534 7.535 7.534 h 9.894 c 4.155 0 7.535 -3.38 7.535 -7.534 C 45.316 53.293 44.868 52.846 44.316 52.846 z" style="stroke: none; stroke-width: 1; stroke-dasharray: none; stroke-linecap: butt; stroke-linejoin: miter; stroke-miterlimit: 10; fill: rgb(0,0,0); fill-rule: nonzero; opacity: 1;" transform=" matrix(1 0 0 1 0 0) " stroke-linecap="round" />
	<path d="M 30.621 33.75 c -2.509 0 -4.577 1.964 -4.708 4.471 c -0.029 0.551 0.395 1.022 0.946 1.051 c 0.018 0.001 0.036 0.001 0.053 0.001 c 0.528 0 0.97 -0.414 0.998 -0.948 c 0.076 -1.444 1.267 -2.576 2.711 -2.576 c 1.048 0 2.014 0.616 2.461 1.569 c 0.234 0.5 0.83 0.716 1.33 0.481 c 0.5 -0.234 0.715 -0.83 0.481 -1.33 C 34.118 34.818 32.441 33.75 30.621 33.75 z" style="stroke: none; stroke-width: 1; stroke-dasharray: none; stroke-linecap: butt; stroke-linejoin: miter; stroke-miterlimit: 10; fill: rgb(0,0,0); fill-rule: nonzero; opacity: 1;" transform=" matrix(1 0 0 1 0 0) " stroke-linecap="round" />
</g>
</svg>