<svg xmlns="http://www.w3.org/2000/svg" xmlns:xlink="http://www.w3.org/1999/xlink" version="1.1" width="256" height="256" viewBox="0 0 256 256" xml:space="preserve">

<defs>
</defs>
<g style="stroke: none; stroke-width: 0; stroke-dasharray: none; stroke-linecap: butt; stroke-linejoin: miter; stroke-miterlimit: 10; fill: none; fill-rule: nonzero; opacity: 1;" transform="translate(1.4065934065934016 1.4065934065934016) scale(2.81 2.81)" >
	<path d="M 70.166 10.423 C 63.444 3.702 54.507 0 45 0 C 25.377 0 9.412 15.965 9.412 35.589 c 0 8.406 3.002 16.574 8.455 23 l 26.372 31.059 C 44.428 89.871 44.707 90 45 90 s 0.572 -0.129 0.762 -0.353 l 26.371 -31.06 c 5.452 -6.425 8.455 -14.593 8.455 -23 C 80.589 26.082 76.888 17.146 70.166 10.423 z M 70.608 57.293 L 45 87.455 L 19.392 57.294 c -5.146 -6.064 -7.98 -13.772 -7.98 -21.705 C 11.412 17.068 26.479 2 45 2 c 8.972 0 17.407 3.494 23.751 9.838 c 6.344 6.344 9.837 14.778 9.837 23.75 C 78.589 43.521 75.755 51.229 70.608 57.293 z" style="stroke: none; stroke-width: 1; stroke-dasharray: none; stroke-linecap: butt; stroke-linejoin: miter; stroke-miterlimit: 10; fill: rgb(0,0,0); fill-rule: nonzero; opacity: 1;" transform=" matrix(1 0 0 1 0 0) " stroke-linecap="round" />
	<path d="M 45 8.398 c -14.336 0 -26 11.664 -26 26 s 11.664 26 26 26 s 26 -11.664 26 -26 S 59.337 8.398 45 8.398 z M 45 58.398 c -13.233 0 -24 -10.767 -24 -24 c 0 -13.233 10.767 -24 24 -24 c 13.234 0 24 10.767 24 24 C 69.001 47.632 58.234 58.398 45 58.398 z" style="stroke: none; stroke-width: 1; stroke-dasharray: none; stroke-linecap: butt; stroke-linejoin: miter; stroke-miterlimit: 10; fill: rgb(0,0,0); fill-rule: nonzero; opacity: 1;" transform=" matrix(1 0 0 1 0 0) " stroke-linecap="round" />
	<path d="M 53.195 20.243 c -0.553 0 -1 0.448 -1 1 v 11.784 H 37.805 V 21.243 c 0 -0.552 -0.448 -1 -1 -1 s -1 0.448 -1 1 v 25.567 c 0 0.553 0.448 1 1 1 s 1 -0.447 1 -1 V 35.027 h 14.391 v 11.784 c 0 0.553 0.447 1 1 1 s 1 -0.447 1 -1 V 21.243 C 54.195 20.691 53.748 20.243 53.195 20.243 z" style="stroke: none; stroke-width: 1; stroke-dasharray: none; stroke-linecap: butt; stroke-linejoin: miter; stroke-miterlimit: 10; fill: rgb(0,0,0); fill-rule: nonzero; opacity: 1;" transform=" matrix(1 0 0 1 0 0) " stroke-linecap="round" />
</g>
</svg>