<svg xmlns="http://www.w3.org/2000/svg" xmlns:xlink="http://www.w3.org/1999/xlink" version="1.1" width="256" height="256" viewBox="0 0 256 256" xml:space="preserve">

<defs>
</defs>
<g style="stroke: none; stroke-width: 0; stroke-dasharray: none; stroke-linecap: butt; stroke-linejoin: miter; stroke-miterlimit: 10; fill: none; fill-rule: nonzero; opacity: 1;" transform="translate(1.4065934065934016 1.4065934065934016) scale(2.81 2.81)" >
	<path d="M 57.404 44.474 H 32.596 c -7.391 0 -13.404 6.013 -13.404 13.405 V 89 c 0 0.553 0.448 1 1 1 h 49.617 c 0.553 0 1 -0.447 1 -1 V 57.879 C 70.809 50.487 64.796 44.474 57.404 44.474 z M 32.596 68.707 c 1.812 0 3.286 1.474 3.286 3.285 s -1.474 3.286 -3.286 3.286 s -3.286 -1.475 -3.286 -3.286 S 30.784 68.707 32.596 68.707 z M 68.809 88 H 21.192 V 57.879 c 0 -5.951 4.583 -10.845 10.404 -11.354 v 20.283 c -2.437 0.469 -4.286 2.612 -4.286 5.184 c 0 2.915 2.371 5.286 5.286 5.286 s 5.286 -2.371 5.286 -5.286 c 0 -2.572 -1.849 -4.715 -4.286 -5.184 V 46.475 h 22.809 v 20.303 c -3.56 0.47 -6.319 3.518 -6.319 7.204 v 6.274 c 0 0.553 0.447 1 1 1 s 1 -0.447 1 -1 v -6.274 c 0 -2.908 2.366 -5.274 5.274 -5.274 s 5.274 2.366 5.274 5.274 v 6.274 c 0 0.553 0.447 1 1 1 s 1 -0.447 1 -1 v -6.274 c 0 -3.655 -2.713 -6.681 -6.229 -7.19 V 46.525 c 5.821 0.509 10.404 5.402 10.404 11.354 V 88 z" style="stroke: none; stroke-width: 1; stroke-dasharray: none; stroke-linecap: butt; stroke-linejoin: miter; stroke-miterlimit: 10; fill: rgb(0,0,0); fill-rule: nonzero; opacity: 1;" transform=" matrix(1 0 0 1 0 0) " stroke-linecap="round" />
	<path d="M 45 37.199 c 10.256 0 18.6 -8.344 18.6 -18.6 S 55.256 0 45 0 S 26.4 8.344 26.4 18.6 S 34.744 37.199 45 37.199 z M 45 2 c 9.153 0 16.6 7.447 16.6 16.6 s -7.446 16.6 -16.6 16.6 c -9.153 0 -16.6 -7.447 -16.6 -16.6 S 35.847 2 45 2 z" style="stroke: none; stroke-width: 1; stroke-dasharray: none; stroke-linecap: butt; stroke-linejoin: miter; stroke-miterlimit: 10; fill: rgb(0,0,0); fill-rule: nonzero; opacity: 1;" transform=" matrix(1 0 0 1 0 0) " stroke-linecap="round" />
</g>
</svg>