<svg xmlns="http://www.w3.org/2000/svg" xmlns:xlink="http://www.w3.org/1999/xlink" version="1.1" width="256" height="256" viewBox="0 0 256 256" xml:space="preserve">

<defs>
</defs>
<g style="stroke: none; stroke-width: 0; stroke-dasharray: none; stroke-linecap: butt; stroke-linejoin: miter; stroke-miterlimit: 10; fill: none; fill-rule: nonzero; opacity: 1;" transform="translate(1.4065934065934016 1.4065934065934016) scale(2.81 2.81)" >
	<path d="M 56.48 39.612 c 0 -6.331 -5.15 -11.48 -11.48 -11.48 c -6.331 0 -11.48 5.15 -11.48 11.48 c 0 2.712 0.969 5.347 2.728 7.421 l 7.991 9.41 c 0.19 0.224 0.469 0.353 0.762 0.353 s 0.572 -0.129 0.762 -0.353 l 7.991 -9.411 C 55.512 44.96 56.48 42.325 56.48 39.612 z M 45 54.251 l -7.228 -8.512 c -1.453 -1.712 -2.252 -3.888 -2.252 -6.126 c 0 -5.228 4.253 -9.48 9.48 -9.48 s 9.48 4.253 9.48 9.48 c 0 2.239 -0.8 4.414 -2.253 6.125 L 45 54.251 z" style="stroke: none; stroke-width: 1; stroke-dasharray: none; stroke-linecap: butt; stroke-linejoin: miter; stroke-miterlimit: 10; fill: rgb(0,0,0); fill-rule: nonzero; opacity: 1;" transform=" matrix(1 0 0 1 0 0) " stroke-linecap="round" />
	<path d="M 45 33.576 c -3.129 0 -5.675 2.546 -5.675 5.675 s 2.546 5.675 5.675 5.675 c 3.13 0 5.676 -2.546 5.676 -5.675 S 48.13 33.576 45 33.576 z M 45 42.927 c -2.026 0 -3.675 -1.649 -3.675 -3.675 s 1.649 -3.675 3.675 -3.675 s 3.676 1.649 3.676 3.675 S 47.026 42.927 45 42.927 z" style="stroke: none; stroke-width: 1; stroke-dasharray: none; stroke-linecap: butt; stroke-linejoin: miter; stroke-miterlimit: 10; fill: rgb(0,0,0); fill-rule: nonzero; opacity: 1;" transform=" matrix(1 0 0 1 0 0) " stroke-linecap="round" />
	<path d="M 84.369 7.714 H 5.631 C 2.526 7.714 0 10.24 0 13.345 v 9.621 v 53.688 c 0 0.092 0.009 0.181 0.014 0.272 c -0.008 0.069 0.003 0.137 0.01 0.207 c 0.245 2.881 2.663 5.152 5.607 5.152 h 34.518 h 7.996 h 36.225 c 3.104 0 5.631 -2.526 5.631 -5.631 V 22.966 v -9.621 C 90 10.24 87.474 7.714 84.369 7.714 z M 2 13.345 c 0 -2.002 1.629 -3.631 3.631 -3.631 h 78.738 c 2.002 0 3.631 1.629 3.631 3.631 v 8.621 H 2 V 13.345 z M 2.166 77.681 l 36.983 -13.118 v 15.723 H 5.631 C 3.988 80.285 2.612 79.181 2.166 77.681 z M 41.148 80.285 V 63.146 c 0 -0.325 -0.158 -0.629 -0.423 -0.816 c -0.266 -0.188 -0.605 -0.236 -0.912 -0.126 L 2 75.617 v -5.361 l 37.351 -13.272 c 0.521 -0.185 0.792 -0.757 0.607 -1.277 c -0.186 -0.52 -0.757 -0.791 -1.277 -0.607 L 2 68.134 V 23.966 h 86 v 14.054 L 54.567 50.092 c -0.52 0.188 -0.788 0.761 -0.601 1.28 c 0.146 0.407 0.531 0.66 0.94 0.66 c 0.112 0 0.228 -0.019 0.34 -0.06 L 88 40.147 v 5.349 L 47.814 59.553 c -0.401 0.141 -0.67 0.52 -0.67 0.944 v 19.788 H 41.148 z M 84.369 80.285 H 49.145 V 61.207 L 88 47.615 v 29.04 C 88 78.656 86.371 80.285 84.369 80.285 z" style="stroke: none; stroke-width: 1; stroke-dasharray: none; stroke-linecap: butt; stroke-linejoin: miter; stroke-miterlimit: 10; fill: rgb(0,0,0); fill-rule: nonzero; opacity: 1;" transform=" matrix(1 0 0 1 0 0) " stroke-linecap="round" />
	<path d="M 13.179 14.84 H 7.468 c -0.552 0 -1 0.448 -1 1 s 0.448 1 1 1 h 5.711 c 0.552 0 1 -0.448 1 -1 S 13.731 14.84 13.179 14.84 z" style="stroke: none; stroke-width: 1; stroke-dasharray: none; stroke-linecap: butt; stroke-linejoin: miter; stroke-miterlimit: 10; fill: rgb(0,0,0); fill-rule: nonzero; opacity: 1;" transform=" matrix(1 0 0 1 0 0) " stroke-linecap="round" />
	<path d="M 24.617 14.84 h -5.711 c -0.552 0 -1 0.448 -1 1 s 0.448 1 1 1 h 5.711 c 0.552 0 1 -0.448 1 -1 S 25.169 14.84 24.617 14.84 z" style="stroke: none; stroke-width: 1; stroke-dasharray: none; stroke-linecap: butt; stroke-linejoin: miter; stroke-miterlimit: 10; fill: rgb(0,0,0); fill-rule: nonzero; opacity: 1;" transform=" matrix(1 0 0 1 0 0) " stroke-linecap="round" />
	<path d="M 36.055 14.84 h -5.711 c -0.552 0 -1 0.448 -1 1 s 0.448 1 1 1 h 5.711 c 0.552 0 1 -0.448 1 -1 S 36.607 14.84 36.055 14.84 z" style="stroke: none; stroke-width: 1; stroke-dasharray: none; stroke-linecap: butt; stroke-linejoin: miter; stroke-miterlimit: 10; fill: rgb(0,0,0); fill-rule: nonzero; opacity: 1;" transform=" matrix(1 0 0 1 0 0) " stroke-linecap="round" />
	<path d="M 82.532 14.84 H 48.266 c -0.553 0 -1 0.448 -1 1 s 0.447 1 1 1 h 34.267 c 0.553 0 1 -0.448 1 -1 S 83.085 14.84 82.532 14.84 z" style="stroke: none; stroke-width: 1; stroke-dasharray: none; stroke-linecap: butt; stroke-linejoin: miter; stroke-miterlimit: 10; fill: rgb(0,0,0); fill-rule: nonzero; opacity: 1;" transform=" matrix(1 0 0 1 0 0) " stroke-linecap="round" />
</g>
</svg>