<svg xmlns="http://www.w3.org/2000/svg" xmlns:xlink="http://www.w3.org/1999/xlink" version="1.1" width="256" height="256" viewBox="0 0 256 256" xml:space="preserve">

<defs>
</defs>
<g style="stroke: none; stroke-width: 0; stroke-dasharray: none; stroke-linecap: butt; stroke-linejoin: miter; stroke-miterlimit: 10; fill: none; fill-rule: nonzero; opacity: 1;" transform="translate(1.4065934065934016 1.4065934065934016) scale(2.81 2.81)" >
	<path d="M 53.098 90 c -1.396 0 -2.705 -0.541 -3.687 -1.522 L 36.272 75.34 c -0.391 -0.391 -0.391 -1.023 0 -1.414 s 1.023 -0.391 1.414 0 l 13.139 13.138 c 1.207 1.209 3.338 1.209 4.545 0 c 1.253 -1.253 1.253 -3.292 0 -4.545 L 43.651 70.801 c -0.391 -0.391 -0.391 -1.023 0 -1.414 s 1.023 -0.391 1.414 0 l 11.719 11.718 c 2.033 2.033 2.033 5.34 0 7.373 C 55.803 89.459 54.494 90 53.098 90 z" style="stroke: none; stroke-width: 1; stroke-dasharray: none; stroke-linecap: butt; stroke-linejoin: miter; stroke-miterlimit: 10; fill: rgb(0,0,0); fill-rule: nonzero; opacity: 1;" transform=" matrix(1 0 0 1 0 0) " stroke-linecap="round" />
	<path d="M 18.074 81.34 c -3.521 0 -7.041 -1.34 -9.722 -4.021 c -2.597 -2.597 -4.027 -6.05 -4.027 -9.723 s 1.43 -7.125 4.027 -9.722 l 6.827 -6.827 C 22.682 41.568 27.77 29.414 30.3 14.921 c 0.215 -1.234 1.09 -2.235 2.282 -2.612 c 1.186 -0.375 2.473 -0.063 3.355 0.82 l 36.608 36.608 c 0.882 0.882 1.196 2.168 0.82 3.355 c -0.377 1.193 -1.378 2.067 -2.612 2.283 c -14.513 2.533 -26.68 7.63 -36.165 15.149 l -6.793 6.794 C 25.116 79.999 21.594 81.34 18.074 81.34 z M 33.595 14.152 c -0.136 0 -0.273 0.021 -0.409 0.064 c -0.485 0.153 -0.828 0.545 -0.916 1.049 l 0 0 c -2.592 14.849 -7.827 27.321 -15.56 37.07 l -0.077 0.086 l -6.868 6.868 c -2.219 2.219 -3.441 5.17 -3.441 8.308 c 0 3.139 1.222 6.089 3.441 8.309 c 4.581 4.581 12.035 4.581 16.616 0 l 7.575 -7.575 l 0.085 0.085 c 9.644 -7.431 21.874 -12.479 36.368 -15.01 c 0.504 -0.088 0.896 -0.43 1.05 -0.915 c 0.151 -0.481 0.029 -0.981 -0.328 -1.339 L 34.524 14.543 C 34.268 14.287 33.938 14.152 33.595 14.152 z" style="stroke: none; stroke-width: 1; stroke-dasharray: none; stroke-linecap: butt; stroke-linejoin: miter; stroke-miterlimit: 10; fill: rgb(0,0,0); fill-rule: nonzero; opacity: 1;" transform=" matrix(1 0 0 1 0 0) " stroke-linecap="round" />
	<path d="M 63.213 35.256 c -0.256 0 -0.512 -0.098 -0.707 -0.293 c -0.391 -0.391 -0.391 -1.024 0 -1.414 c 1.225 -1.225 1.849 -2.911 1.758 -4.748 c -0.093 -1.875 -0.914 -3.677 -2.313 -5.077 c -2.861 -2.86 -7.267 -3.11 -9.824 -0.556 c -0.391 0.391 -1.023 0.391 -1.414 0 s -0.391 -1.024 0 -1.414 c 3.336 -3.336 9.012 -3.085 12.652 0.556 c 1.751 1.751 2.78 4.021 2.897 6.392 c 0.119 2.408 -0.713 4.631 -2.342 6.26 C 63.725 35.158 63.469 35.256 63.213 35.256 z" style="stroke: none; stroke-width: 1; stroke-dasharray: none; stroke-linecap: butt; stroke-linejoin: miter; stroke-miterlimit: 10; fill: rgb(0,0,0); fill-rule: nonzero; opacity: 1;" transform=" matrix(1 0 0 1 0 0) " stroke-linecap="round" />
	<path d="M 68.758 17.918 c -0.256 0 -0.512 -0.098 -0.707 -0.293 c -0.391 -0.391 -0.391 -1.023 0 -1.414 L 83.968 0.293 c 0.391 -0.391 1.023 -0.391 1.414 0 s 0.391 1.023 0 1.414 L 69.465 17.625 C 69.27 17.82 69.014 17.918 68.758 17.918 z" style="stroke: none; stroke-width: 1; stroke-dasharray: none; stroke-linecap: butt; stroke-linejoin: miter; stroke-miterlimit: 10; fill: rgb(0,0,0); fill-rule: nonzero; opacity: 1;" transform=" matrix(1 0 0 1 0 0) " stroke-linecap="round" />
	<path d="M 59.814 12.812 c -0.256 0 -0.512 -0.098 -0.707 -0.293 c -0.391 -0.391 -0.391 -1.023 0 -1.414 l 7.959 -7.959 c 0.391 -0.391 1.023 -0.391 1.414 0 s 0.391 1.023 0 1.414 l -7.959 7.959 C 60.326 12.714 60.07 12.812 59.814 12.812 z" style="stroke: none; stroke-width: 1; stroke-dasharray: none; stroke-linecap: butt; stroke-linejoin: miter; stroke-miterlimit: 10; fill: rgb(0,0,0); fill-rule: nonzero; opacity: 1;" transform=" matrix(1 0 0 1 0 0) " stroke-linecap="round" />
	<path d="M 73.863 26.861 c -0.256 0 -0.512 -0.098 -0.707 -0.293 c -0.391 -0.391 -0.391 -1.023 0 -1.414 l 7.959 -7.958 c 0.391 -0.391 1.023 -0.391 1.414 0 s 0.391 1.023 0 1.414 l -7.959 7.958 C 74.375 26.763 74.119 26.861 73.863 26.861 z" style="stroke: none; stroke-width: 1; stroke-dasharray: none; stroke-linecap: butt; stroke-linejoin: miter; stroke-miterlimit: 10; fill: rgb(0,0,0); fill-rule: nonzero; opacity: 1;" transform=" matrix(1 0 0 1 0 0) " stroke-linecap="round" />
	<path d="M 46.026 14.938 c -0.256 0 -0.512 -0.098 -0.707 -0.293 c -0.391 -0.391 -0.391 -1.023 0 -1.414 l 7.957 -7.957 c 0.391 -0.391 1.023 -0.391 1.414 0 s 0.391 1.023 0 1.414 l -7.957 7.957 C 46.538 14.84 46.282 14.938 46.026 14.938 z" style="stroke: none; stroke-width: 1; stroke-dasharray: none; stroke-linecap: butt; stroke-linejoin: miter; stroke-miterlimit: 10; fill: rgb(0,0,0); fill-rule: nonzero; opacity: 1;" transform=" matrix(1 0 0 1 0 0) " stroke-linecap="round" />
	<path d="M 71.737 40.649 c -0.256 0 -0.512 -0.098 -0.707 -0.293 c -0.391 -0.391 -0.391 -1.023 0 -1.414 l 7.957 -7.957 c 0.391 -0.391 1.023 -0.391 1.414 0 s 0.391 1.023 0 1.414 l -7.957 7.957 C 72.249 40.551 71.993 40.649 71.737 40.649 z" style="stroke: none; stroke-width: 1; stroke-dasharray: none; stroke-linecap: butt; stroke-linejoin: miter; stroke-miterlimit: 10; fill: rgb(0,0,0); fill-rule: nonzero; opacity: 1;" transform=" matrix(1 0 0 1 0 0) " stroke-linecap="round" />
</g>
</svg>