<svg xmlns="http://www.w3.org/2000/svg" xmlns:xlink="http://www.w3.org/1999/xlink" version="1.1" width="256" height="256" viewBox="0 0 256 256" xml:space="preserve">

<defs>
</defs>
<g style="stroke: none; stroke-width: 0; stroke-dasharray: none; stroke-linecap: butt; stroke-linejoin: miter; stroke-miterlimit: 10; fill: none; fill-rule: nonzero; opacity: 1;" transform="translate(1.4065934065934016 1.4065934065934016) scale(2.81 2.81)" >
	<path d="M 81.051 22.714 H 69.488 c -3.739 0 -6.781 3.042 -6.781 6.781 v 10.766 H 43.103 V 29.496 c 0 -3.739 -3.042 -6.781 -6.781 -6.781 H 24.76 c -3.739 0 -6.781 3.042 -6.781 6.781 v 10.766 H 3.168 c -0.552 0 -1 0.448 -1 1 v 47.731 c 0 0.553 0.448 1 1 1 h 15.085 h 37.355 H 69.45 C 69.463 89.993 69.475 90 69.488 90 h 11.563 c 0.553 0 1 -0.447 1 -1 V 57.978 c 3.267 -0.485 5.781 -3.309 5.781 -6.708 V 29.496 C 87.832 25.756 84.79 22.714 81.051 22.714 z M 19.979 29.496 c 0 -2.636 2.145 -4.781 4.781 -4.781 h 11.562 c 2.636 0 4.781 2.145 4.781 4.781 v 10.766 H 19.979 V 29.496 z M 4.168 42.261 h 58.539 v 9.008 c 0 3.399 2.515 6.223 5.781 6.708 v 30.015 h -11.88 V 65.127 c 0 -0.553 -0.447 -1 -1 -1 H 45.134 v -3.548 c 0 -2.359 -1.919 -4.279 -4.279 -4.279 h -7.85 c -2.359 0 -4.279 1.92 -4.279 4.279 v 3.548 H 18.253 c -0.552 0 -1 0.447 -1 1 v 22.865 H 4.168 V 42.261 z M 43.134 64.127 H 30.727 v -3.548 c 0 -1.257 1.022 -2.279 2.279 -2.279 h 7.85 c 1.256 0 2.279 1.022 2.279 2.279 V 64.127 z M 19.253 87.992 V 66.127 h 10.474 h 14.407 h 10.474 v 21.865 H 19.253 z M 85.832 51.27 c 0 2.637 -2.145 4.781 -4.781 4.781 c -0.553 0 -1 0.447 -1 1 V 88 h -9.563 V 57.051 c 0 -0.553 -0.447 -1 -1 -1 c -2.637 0 -4.781 -2.145 -4.781 -4.781 V 29.496 c 0 -2.636 2.145 -4.781 4.781 -4.781 h 11.563 c 2.637 0 4.781 2.145 4.781 4.781 V 51.27 z" style="stroke: none; stroke-width: 1; stroke-dasharray: none; stroke-linecap: butt; stroke-linejoin: miter; stroke-miterlimit: 10; fill: rgb(0,0,0); fill-rule: nonzero; opacity: 1;" transform=" matrix(1 0 0 1 0 0) " stroke-linecap="round" />
	<path d="M 75.27 18.324 c 5.052 0 9.162 -4.11 9.162 -9.162 S 80.321 0 75.27 0 s -9.162 4.11 -9.162 9.162 S 70.218 18.324 75.27 18.324 z M 75.27 2 c 3.949 0 7.162 3.213 7.162 7.162 s -3.213 7.162 -7.162 7.162 s -7.162 -3.213 -7.162 -7.162 S 71.32 2 75.27 2 z" style="stroke: none; stroke-width: 1; stroke-dasharray: none; stroke-linecap: butt; stroke-linejoin: miter; stroke-miterlimit: 10; fill: rgb(0,0,0); fill-rule: nonzero; opacity: 1;" transform=" matrix(1 0 0 1 0 0) " stroke-linecap="round" />
	<path d="M 30.541 18.324 c 5.052 0 9.162 -4.11 9.162 -9.162 S 35.593 0 30.541 0 c -5.052 0 -9.163 4.11 -9.163 9.162 S 25.489 18.324 30.541 18.324 z M 30.541 2 c 3.949 0 7.162 3.213 7.162 7.162 s -3.213 7.162 -7.162 7.162 c -3.95 0 -7.163 -3.213 -7.163 -7.162 S 26.591 2 30.541 2 z" style="stroke: none; stroke-width: 1; stroke-dasharray: none; stroke-linecap: butt; stroke-linejoin: miter; stroke-miterlimit: 10; fill: rgb(0,0,0); fill-rule: nonzero; opacity: 1;" transform=" matrix(1 0 0 1 0 0) " stroke-linecap="round" />
	<path d="M 25.378 69.372 c -0.552 0 -1 0.447 -1 1 v 13.737 c 0 0.553 0.448 1 1 1 s 1 -0.447 1 -1 V 70.372 C 26.378 69.819 25.931 69.372 25.378 69.372 z" style="stroke: none; stroke-width: 1; stroke-dasharray: none; stroke-linecap: butt; stroke-linejoin: miter; stroke-miterlimit: 10; fill: rgb(0,0,0); fill-rule: nonzero; opacity: 1;" transform=" matrix(1 0 0 1 0 0) " stroke-linecap="round" />
</g>
</svg>