<svg xmlns="http://www.w3.org/2000/svg" xmlns:xlink="http://www.w3.org/1999/xlink" version="1.1" width="256" height="256" viewBox="0 0 256 256" xml:space="preserve">

<defs>
</defs>
<g style="stroke: none; stroke-width: 0; stroke-dasharray: none; stroke-linecap: butt; stroke-linejoin: miter; stroke-miterlimit: 10; fill: none; fill-rule: nonzero; opacity: 1;" transform="translate(1.4065934065934016 1.4065934065934016) scale(2.81 2.81)" >
	<path d="M 13.306 53.225 h 12.617 c 0.552 0 1 -0.447 1 -1 V 39.608 c 0 -0.552 -0.448 -1 -1 -1 H 13.306 c -0.552 0 -1 0.448 -1 1 v 12.617 C 12.306 52.777 12.753 53.225 13.306 53.225 z M 14.306 40.608 h 10.617 v 10.617 H 14.306 V 40.608 z" style="stroke: none; stroke-width: 1; stroke-dasharray: none; stroke-linecap: butt; stroke-linejoin: miter; stroke-miterlimit: 10; fill: rgb(0,0,0); fill-rule: nonzero; opacity: 1;" transform=" matrix(1 0 0 1 0 0) " stroke-linecap="round" />
	<path d="M 13.306 74.803 h 12.617 c 0.552 0 1 -0.447 1 -1 V 61.186 c 0 -0.553 -0.448 -1 -1 -1 H 13.306 c -0.552 0 -1 0.447 -1 1 v 12.617 C 12.306 74.355 12.753 74.803 13.306 74.803 z M 14.306 62.186 h 10.617 v 10.617 H 14.306 V 62.186 z" style="stroke: none; stroke-width: 1; stroke-dasharray: none; stroke-linecap: butt; stroke-linejoin: miter; stroke-miterlimit: 10; fill: rgb(0,0,0); fill-rule: nonzero; opacity: 1;" transform=" matrix(1 0 0 1 0 0) " stroke-linecap="round" />
	<path d="M 38.691 74.803 h 12.617 c 0.553 0 1 -0.447 1 -1 V 61.186 c 0 -0.553 -0.447 -1 -1 -1 H 38.691 c -0.552 0 -1 0.447 -1 1 v 12.617 C 37.691 74.355 38.139 74.803 38.691 74.803 z M 39.691 62.186 h 10.617 v 10.617 H 39.691 V 62.186 z" style="stroke: none; stroke-width: 1; stroke-dasharray: none; stroke-linecap: butt; stroke-linejoin: miter; stroke-miterlimit: 10; fill: rgb(0,0,0); fill-rule: nonzero; opacity: 1;" transform=" matrix(1 0 0 1 0 0) " stroke-linecap="round" />
	<path d="M 64.077 53.225 h 12.617 c 0.553 0 1 -0.447 1 -1 V 39.608 c 0 -0.552 -0.447 -1 -1 -1 H 64.077 c -0.553 0 -1 0.448 -1 1 v 12.617 C 63.077 52.777 63.524 53.225 64.077 53.225 z M 65.077 40.608 h 10.617 v 10.617 H 65.077 V 40.608 z" style="stroke: none; stroke-width: 1; stroke-dasharray: none; stroke-linecap: butt; stroke-linejoin: miter; stroke-miterlimit: 10; fill: rgb(0,0,0); fill-rule: nonzero; opacity: 1;" transform=" matrix(1 0 0 1 0 0) " stroke-linecap="round" />
	<path d="M 64.077 74.803 h 12.617 c 0.553 0 1 -0.447 1 -1 V 61.186 c 0 -0.553 -0.447 -1 -1 -1 H 64.077 c -0.553 0 -1 0.447 -1 1 v 12.617 C 63.077 74.355 63.524 74.803 64.077 74.803 z M 65.077 62.186 h 10.617 v 10.617 H 65.077 V 62.186 z" style="stroke: none; stroke-width: 1; stroke-dasharray: none; stroke-linecap: butt; stroke-linejoin: miter; stroke-miterlimit: 10; fill: rgb(0,0,0); fill-rule: nonzero; opacity: 1;" transform=" matrix(1 0 0 1 0 0) " stroke-linecap="round" />
	<path d="M 81.015 12.885 h -7.397 V 4.048 c 0 -0.552 -0.447 -1 -1 -1 H 59.786 c -0.553 0 -1 0.448 -1 1 v 8.837 H 31.214 V 4.048 c 0 -0.552 -0.448 -1 -1 -1 H 17.383 c -0.552 0 -1 0.448 -1 1 v 8.837 H 8.985 C 4.031 12.885 0 16.916 0 21.87 v 5.589 v 50.507 c 0 4.954 4.031 8.985 8.985 8.985 h 72.03 c 4.954 0 8.985 -4.031 8.985 -8.985 V 27.459 V 21.87 C 90 16.916 85.969 12.885 81.015 12.885 z M 60.786 5.048 h 10.831 v 7.837 H 60.786 V 5.048 z M 18.383 5.048 h 10.831 v 7.837 H 18.383 V 5.048 z M 2 21.87 c 0 -3.852 3.133 -6.985 6.985 -6.985 h 8.398 h 12.831 h 29.572 h 12.831 h 8.397 c 3.852 0 6.985 3.133 6.985 6.985 v 4.589 H 2 V 21.87 z M 88 77.967 c 0 3.852 -3.134 6.985 -6.985 6.985 H 8.985 C 5.133 84.952 2 81.818 2 77.967 V 28.459 h 86 V 77.967 z" style="stroke: none; stroke-width: 1; stroke-dasharray: none; stroke-linecap: butt; stroke-linejoin: miter; stroke-miterlimit: 10; fill: rgb(0,0,0); fill-rule: nonzero; opacity: 1;" transform=" matrix(1 0 0 1 0 0) " stroke-linecap="round" />
	<path d="M 42.454 52.757 c 0.183 0.29 0.501 0.467 0.845 0.468 c 0 0 0.001 0 0.002 0 c 0.342 0 0.661 -0.175 0.844 -0.464 l 8.009 -12.617 c 0.296 -0.466 0.157 -1.084 -0.309 -1.38 s -1.085 -0.158 -1.381 0.308 l -7.16 11.281 l -3.766 -5.992 c -0.293 -0.467 -0.91 -0.607 -1.379 -0.314 c -0.468 0.294 -0.608 0.911 -0.314 1.379 L 42.454 52.757 z" style="stroke: none; stroke-width: 1; stroke-dasharray: none; stroke-linecap: butt; stroke-linejoin: miter; stroke-miterlimit: 10; fill: rgb(0,0,0); fill-rule: nonzero; opacity: 1;" transform=" matrix(1 0 0 1 0 0) " stroke-linecap="round" />
</g>
</svg>