<svg xmlns="http://www.w3.org/2000/svg" xmlns:xlink="http://www.w3.org/1999/xlink" version="1.1" width="256" height="256" viewBox="0 0 256 256" xml:space="preserve">

<defs>
</defs>
<g style="stroke: none; stroke-width: 0; stroke-dasharray: none; stroke-linecap: butt; stroke-linejoin: miter; stroke-miterlimit: 10; fill: none; fill-rule: nonzero; opacity: 1;" transform="translate(1.4065934065934016 1.4065934065934016) scale(2.81 2.81)" >
	<path d="M 84.436 63.517 c 0.082 0.021 0.166 0.032 0.25 0.032 c 0.22 0 0.436 -0.072 0.612 -0.209 c 0.244 -0.189 0.388 -0.481 0.388 -0.791 V 30.45 c 0 -0.552 -0.447 -1 -1 -1 H 73.183 v -5.848 c 2.69 -0.468 4.744 -2.814 4.744 -5.636 v -2.578 c 0 -0.552 -0.447 -1 -1 -1 h -9.452 c -0.553 0 -1 0.448 -1 1 v 2.578 c 0 2.809 2.036 5.147 4.708 5.63 v 5.854 h -6.34 h -3.539 V 12.011 c 0 -1.369 -1.113 -2.482 -2.482 -2.482 c -0.266 0 -0.482 -0.216 -0.482 -0.482 V 1 c 0 -0.552 -0.447 -1 -1 -1 h -3.896 c -0.553 0 -1 0.448 -1 1 v 8.047 c 0 0.266 -0.217 0.482 -0.482 0.482 c -1.369 0 -2.482 1.114 -2.482 2.482 V 29.45 H 45 h -0.172 c -0.459 -8.02 -6.355 -14.599 -14.062 -16.081 c 0.502 -0.68 0.809 -1.512 0.809 -2.421 c 0 -2.261 -1.839 -4.1 -4.099 -4.1 s -4.099 1.839 -4.099 4.1 c 0 0.908 0.307 1.741 0.809 2.421 c -7.707 1.482 -13.603 8.061 -14.062 16.081 h -4.81 c -0.552 0 -1 0.448 -1 1 v 32.099 c 0 0.31 0.143 0.602 0.388 0.791 c 0.177 0.137 0.393 0.209 0.612 0.209 c 0.083 0 0.167 -0.011 0.25 -0.032 l 5.125 -1.323 v 6.205 H 5.314 c -0.552 0 -1 0.447 -1 1 v 7.5 c 0 0.553 0.448 1 1 1 h 6.902 c -1.319 1.282 -2.142 3.071 -2.142 5.051 c 0 3.888 3.163 7.051 7.051 7.051 s 7.051 -3.163 7.051 -7.051 c 0 -1.98 -0.823 -3.769 -2.142 -5.051 h 45.933 c -1.319 1.282 -2.142 3.071 -2.142 5.051 c 0 3.888 3.163 7.051 7.051 7.051 s 7.051 -3.163 7.051 -7.051 c 0 -1.98 -0.823 -3.769 -2.142 -5.051 h 6.901 c 0.553 0 1 -0.447 1 -1 v -7.5 c 0 -0.553 -0.447 -1 -1 -1 h -5.375 v -6.205 L 84.436 63.517 z M 68.475 17.966 v -1.578 h 7.452 v 1.578 c 0 2.055 -1.671 3.726 -3.726 3.726 S 68.475 20.021 68.475 17.966 z M 51.479 12.011 c 0 -0.266 0.217 -0.482 0.482 -0.482 c 1.369 0 2.482 -1.113 2.482 -2.482 V 2 h 1.896 v 7.047 c 0 1.369 1.113 2.482 2.482 2.482 c 0.266 0 0.482 0.216 0.482 0.482 V 29.45 h -7.825 V 12.011 z M 25.377 10.948 c 0 -1.158 0.942 -2.1 2.099 -2.1 s 2.099 0.942 2.099 2.1 c 0 1.157 -0.942 2.099 -2.099 2.099 S 25.377 12.105 25.377 10.948 z M 27.476 15.047 c 8.157 0 14.854 6.374 15.371 14.402 H 25.157 H 12.105 C 12.622 21.421 19.319 15.047 27.476 15.047 z M 6.314 31.45 h 4.759 h 14.084 h 18.722 H 45 h 5.479 h 9.825 h 4.539 h 18.843 v 29.808 L 65.843 56.65 V 40.073 c 0 -0.552 -0.447 -1 -1 -1 s -1 0.448 -1 1 v 16.577 L 46 61.258 V 46.223 c 0 -0.552 -0.448 -1 -1 -1 s -1 0.448 -1 1 v 15.036 L 26.157 56.65 V 40.073 c 0 -0.552 -0.448 -1 -1 -1 s -1 0.448 -1 1 v 16.577 L 6.314 61.258 V 31.45 z M 22.175 82.949 c 0 2.785 -2.266 5.051 -5.051 5.051 s -5.051 -2.266 -5.051 -5.051 s 2.266 -5.051 5.051 -5.051 S 22.175 80.164 22.175 82.949 z M 77.927 82.949 c 0 2.785 -2.266 5.051 -5.051 5.051 s -5.051 -2.266 -5.051 -5.051 s 2.266 -5.051 5.051 -5.051 S 77.927 80.164 77.927 82.949 z M 83.686 75.898 H 6.314 v -5.5 h 77.372 V 75.898 z M 77.311 68.398 H 12.689 v -6.722 l 12.468 -3.22 l 19.593 5.059 c 0.083 0.022 0.167 0.032 0.248 0.032 c 0.001 0 0.001 0 0.002 0 c 0 0 0 0 0 0 s 0 0 0 0 c 0.001 0 0.001 0 0.002 0 c 0.083 0 0.166 -0.011 0.248 -0.032 l 19.593 -5.059 l 12.468 3.22 V 68.398 z" style="stroke: none; stroke-width: 1; stroke-dasharray: none; stroke-linecap: butt; stroke-linejoin: miter; stroke-miterlimit: 10; fill: rgb(0,0,0); fill-rule: nonzero; opacity: 1;" transform=" matrix(1 0 0 1 0 0) " stroke-linecap="round" />
</g>
</svg>