<svg xmlns="http://www.w3.org/2000/svg" xmlns:xlink="http://www.w3.org/1999/xlink" version="1.1" width="256" height="256" viewBox="0 0 256 256" xml:space="preserve">

<defs>
</defs>
<g style="stroke: none; stroke-width: 0; stroke-dasharray: none; stroke-linecap: butt; stroke-linejoin: miter; stroke-miterlimit: 10; fill: none; fill-rule: nonzero; opacity: 1;" transform="translate(1.4065934065934016 1.4065934065934016) scale(2.81 2.81)" >
	<path d="M 84.881 73.312 H 53.919 l -2.2 -5.5 h 34.419 c 2.129 0 3.861 -1.732 3.861 -3.861 c 0 -24.478 -19.648 -44.439 -44 -44.975 V 15.95 h 1.492 c 2.619 0 4.75 -2.131 4.75 -4.75 s -2.131 -4.75 -4.75 -4.75 h -4.985 c -2.619 0 -4.75 2.131 -4.75 4.75 s 2.131 4.75 4.75 4.75 H 44 v 3.025 C 19.648 19.511 0 39.473 0 63.95 c 0 2.129 1.732 3.861 3.862 3.861 H 38.28 l -2.2 5.5 H 5.119 C 2.296 73.312 0 75.608 0 78.431 s 2.296 5.119 5.119 5.119 h 79.762 c 2.822 0 5.119 -2.297 5.119 -5.119 S 87.703 73.312 84.881 73.312 z M 39.757 11.2 c 0 -1.517 1.234 -2.75 2.75 -2.75 h 4.985 c 1.517 0 2.75 1.233 2.75 2.75 s -1.233 2.75 -2.75 2.75 h -4.985 C 40.991 13.95 39.757 12.717 39.757 11.2 z M 2 63.95 c 0 -23.71 19.29 -43 43 -43 c 23.71 0 43 19.29 43 43 c 0 1.026 -0.835 1.861 -1.861 1.861 H 50.242 H 39.757 H 3.862 C 2.835 65.812 2 64.977 2 63.95 z M 40.435 67.812 h 9.131 l 2.2 5.5 H 38.234 L 40.435 67.812 z M 84.881 81.55 H 5.119 C 3.399 81.55 2 80.15 2 78.431 s 1.399 -3.119 3.119 -3.119 h 31.638 h 16.485 h 31.639 c 1.72 0 3.119 1.399 3.119 3.119 S 86.601 81.55 84.881 81.55 z" style="stroke: none; stroke-width: 1; stroke-dasharray: none; stroke-linecap: butt; stroke-linejoin: miter; stroke-miterlimit: 10; fill: rgb(0,0,0); fill-rule: nonzero; opacity: 1;" transform=" matrix(1 0 0 1 0 0) " stroke-linecap="round" />
	<path d="M 34.534 29.334 c -11.406 3.547 -20.42 12.913 -23.525 24.443 c -0.144 0.533 0.172 1.082 0.706 1.226 c 0.087 0.023 0.174 0.034 0.26 0.034 c 0.441 0 0.845 -0.294 0.965 -0.74 C 15.868 43.423 24.37 34.59 35.127 31.245 c 0.527 -0.164 0.822 -0.725 0.658 -1.252 C 35.622 29.465 35.058 29.172 34.534 29.334 z" style="stroke: none; stroke-width: 1; stroke-dasharray: none; stroke-linecap: butt; stroke-linejoin: miter; stroke-miterlimit: 10; fill: rgb(0,0,0); fill-rule: nonzero; opacity: 1;" transform=" matrix(1 0 0 1 0 0) " stroke-linecap="round" />
</g>
</svg>