<svg xmlns="http://www.w3.org/2000/svg" xmlns:xlink="http://www.w3.org/1999/xlink" version="1.1" width="256" height="256" viewBox="0 0 256 256" xml:space="preserve">

<defs>
</defs>
<g style="stroke: none; stroke-width: 0; stroke-dasharray: none; stroke-linecap: butt; stroke-linejoin: miter; stroke-miterlimit: 10; fill: none; fill-rule: nonzero; opacity: 1;" transform="translate(1.4065934065934016 1.4065934065934016) scale(2.81 2.81)" >
	<path d="M 52.445 90 h -14.89 c -1.801 0 -3.266 -1.465 -3.266 -3.265 v -4.428 c -2.808 -0.805 -5.52 -1.931 -8.089 -3.357 l -3.136 3.135 c -1.232 1.234 -3.386 1.234 -4.619 0 L 7.916 71.555 c -1.273 -1.274 -1.273 -3.345 0 -4.619 l 3.137 -3.136 c -1.427 -2.57 -2.553 -5.282 -3.358 -8.09 H 3.266 C 1.465 55.711 0 54.246 0 52.445 v -14.89 c 0 -1.801 1.465 -3.266 3.266 -3.266 h 4.428 c 0.805 -2.809 1.931 -5.521 3.358 -8.09 l -3.136 -3.136 c -1.273 -1.273 -1.273 -3.345 0 -4.618 L 18.445 7.916 c 1.231 -1.233 3.384 -1.236 4.619 0 l 3.136 3.136 c 2.57 -1.427 5.282 -2.552 8.089 -3.358 V 3.266 C 34.289 1.466 35.754 0 37.555 0 h 14.89 c 1.801 0 3.266 1.465 3.266 3.266 v 4.427 c 2.807 0.805 5.519 1.931 8.089 3.358 l 3.136 -3.136 c 0.617 -0.617 1.437 -0.957 2.309 -0.957 c 0 0 0 0 0.001 0 c 0.872 0 1.693 0.34 2.309 0.958 l 10.528 10.528 c 1.273 1.274 1.272 3.346 0 4.618 l -3.136 3.137 c 1.427 2.57 2.553 5.283 3.357 8.09 h 4.428 c 1.801 0 3.266 1.465 3.266 3.266 v 14.89 c 0 1.8 -1.465 3.265 -3.266 3.265 h -4.428 c -0.805 2.808 -1.931 5.52 -3.357 8.09 l 3.136 3.136 c 1.272 1.274 1.272 3.345 0.001 4.618 l -10.53 10.529 c -1.231 1.234 -3.383 1.234 -4.619 0 L 63.8 78.949 c -2.57 1.427 -5.282 2.553 -8.089 3.357 v 4.428 C 55.711 88.534 54.246 90 52.445 90 z M 25.72 75.231 l 0.991 0.59 c 2.953 1.756 6.124 3.072 9.426 3.912 l 1.118 0.285 v 6.716 c 0 0.164 0.134 0.298 0.299 0.298 h 14.89 c 0.165 0 0.299 -0.134 0.299 -0.298 v -6.716 l 1.117 -0.285 c 3.3 -0.839 6.472 -2.155 9.426 -3.912 l 0.992 -0.59 l 4.754 4.755 c 0.146 0.147 0.281 0.144 0.422 0.001 l 10.53 -10.529 c 0.116 -0.116 0.116 -0.307 -0.001 -0.424 l -4.755 -4.753 l 0.59 -0.992 c 1.756 -2.954 3.072 -6.126 3.912 -9.427 l 0.285 -1.117 h 6.716 c 0.165 0 0.299 -0.134 0.299 -0.298 v -14.89 c 0 -0.165 -0.134 -0.299 -0.299 -0.299 h -6.716 l -0.285 -1.118 c -0.839 -3.301 -2.156 -6.473 -3.912 -9.426 l -0.59 -0.991 l 4.756 -4.755 c 0.116 -0.116 0.116 -0.307 -0.001 -0.424 L 69.457 10.014 c -0.144 -0.144 -0.278 -0.146 -0.423 0 l -4.754 4.754 l -0.992 -0.589 c -2.954 -1.757 -6.126 -3.073 -9.426 -3.913 l -1.117 -0.284 V 3.266 c 0 -0.165 -0.134 -0.299 -0.299 -0.299 h -14.89 c -0.165 0 -0.299 0.134 -0.299 0.299 v 6.716 l -1.118 0.284 c -3.302 0.84 -6.473 2.156 -9.426 3.912 l -0.991 0.59 l -4.755 -4.755 c -0.145 -0.144 -0.278 -0.144 -0.423 0 L 10.014 20.543 c -0.116 0.116 -0.116 0.306 0 0.423 l 4.755 4.755 l -0.59 0.991 c -1.756 2.953 -3.072 6.124 -3.912 9.426 l -0.284 1.118 H 3.266 c -0.165 0 -0.299 0.134 -0.299 0.299 v 14.89 c 0 0.164 0.134 0.298 0.299 0.298 h 6.716 l 0.284 1.117 c 0.84 3.301 2.156 6.473 3.913 9.427 l 0.589 0.992 l -4.755 4.754 c -0.116 0.117 -0.116 0.306 0 0.423 l 10.528 10.528 c 0.145 0.145 0.279 0.145 0.423 0 L 25.72 75.231 z M 45 69.452 c -13.482 0 -24.451 -10.969 -24.451 -24.451 S 31.517 20.549 45 20.549 S 69.451 31.518 69.451 45 S 58.482 69.452 45 69.452 z M 45 23.516 c -11.846 0 -21.484 9.638 -21.484 21.484 S 33.153 66.485 45 66.485 S 66.484 56.847 66.484 45 S 56.846 23.516 45 23.516 z" style="stroke: none; stroke-width: 1; stroke-dasharray: none; stroke-linecap: butt; stroke-linejoin: miter; stroke-miterlimit: 10; fill: rgb(0,0,0); fill-rule: nonzero; opacity: 1;" transform=" matrix(1 0 0 1 0 0) " stroke-linecap="round" />
</g>
</svg>