<svg xmlns="http://www.w3.org/2000/svg" xmlns:xlink="http://www.w3.org/1999/xlink" version="1.1" width="256" height="256" viewBox="0 0 256 256" xml:space="preserve">

<defs>
</defs>
<g style="stroke: none; stroke-width: 0; stroke-dasharray: none; stroke-linecap: butt; stroke-linejoin: miter; stroke-miterlimit: 10; fill: none; fill-rule: nonzero; opacity: 1;" transform="translate(1.4065934065934016 1.4065934065934016) scale(2.81 2.81)" >
	<path d="M 77.563 66.195 h -1.91 c 3.422 -2.218 5.697 -6.063 5.697 -10.437 c 0 -6.857 -5.579 -12.437 -12.437 -12.437 h -4.503 c 3.422 -2.218 5.696 -6.063 5.696 -10.436 c 0 -6.857 -5.579 -12.437 -12.437 -12.437 h -9.474 c -6.857 0 -12.436 5.579 -12.436 12.437 c 0 4.373 2.274 8.218 5.696 10.436 h -4.503 c -2.271 0 -4.432 0.606 -6.344 1.747 c -0.745 -2.674 -3.196 -4.644 -6.104 -4.644 h -8.082 v -2.477 c 2.073 -0.695 3.583 -3.515 3.583 -6.992 c 0 -2.894 -1.409 -10.508 -4.583 -10.508 c -3.173 0 -4.583 7.614 -4.583 10.508 c 0 3.476 1.51 6.296 3.583 6.992 v 2.477 H 6.342 C 2.845 40.425 0 43.271 0 46.768 v 43.3 c 0 0.553 0.448 1 1 1 h 14.771 h 12.534 h 1.543 h 10.097 c 0.011 0 0.022 0.001 0.033 0.001 c 0.01 0 0.02 -0.001 0.03 -0.001 h 1.934 c 0.01 0 0.02 0.001 0.03 0.001 c 0.011 0 0.022 -0.001 0.033 -0.001 h 24.175 h 11.382 C 84.421 91.067 90 85.489 90 78.632 S 84.421 66.195 77.563 66.195 z M 12.841 30.957 c 0 -3.738 1.709 -8.378 2.579 -8.508 c 0.877 0.129 2.586 4.768 2.586 8.508 c 0 3.041 -1.361 5.16 -2.583 5.16 S 12.841 33.998 12.841 30.957 z M 37.761 32.886 c 0 -5.755 4.682 -10.437 10.436 -10.437 h 9.474 c 5.755 0 10.437 4.682 10.437 10.437 c 0 5.754 -4.682 10.436 -10.437 10.436 h -9.474 C 42.443 43.322 37.761 38.64 37.761 32.886 z M 48.197 45.322 h 9.474 h 11.243 c 5.755 0 10.437 4.682 10.437 10.437 s -4.682 10.437 -10.437 10.437 h -4.901 c -0.115 -0.673 -0.264 -1.338 -0.471 -1.983 c -0.099 -0.308 -0.34 -0.548 -0.646 -0.646 c -3.776 -1.214 -8.092 -0.819 -12.193 0.925 c -1.181 -6.171 -4.654 -11.362 -9.268 -13.735 c -0.287 -0.146 -0.628 -0.146 -0.915 0 c -4.615 2.374 -8.089 7.564 -9.269 13.736 c -0.134 -0.057 -0.268 -0.115 -0.402 -0.169 V 47.304 c 1.784 -1.293 3.883 -1.982 6.106 -1.982 H 48.197 z M 41.929 89.067 c -0.298 -0.001 -0.595 -0.01 -0.889 -0.029 c -0.022 -0.001 -0.042 0.009 -0.064 0.01 c -0.023 -0.001 -0.042 -0.011 -0.065 -0.01 c -0.3 0.02 -0.602 0.028 -0.906 0.029 h -0.091 c -0.513 -0.002 -1.031 -0.035 -1.55 -0.09 c -1.449 -5.53 0.949 -12.741 5.995 -17.786 c 5.042 -5.04 11.976 -7.354 17.427 -5.869 c 1.486 5.455 -0.829 12.386 -5.869 17.427 c -3.982 3.982 -9.101 6.299 -13.863 6.318 H 41.929 z M 37.595 71.191 c 0.789 0.789 1.505 1.64 2.167 2.52 c -3.083 4.706 -4.433 10.234 -3.531 14.905 c -3.618 -0.854 -7.223 -2.895 -10.195 -5.868 c -5.041 -5.04 -7.355 -11.971 -5.869 -17.427 C 25.622 63.837 32.554 66.15 37.595 71.191 z M 40.971 72.01 c -0.614 -0.774 -1.258 -1.529 -1.962 -2.232 c -1.8 -1.801 -3.796 -3.276 -5.882 -4.395 c 0.932 -5.591 3.879 -10.328 7.85 -12.599 c 3.97 2.271 6.916 7.008 7.849 12.599 c -2.085 1.12 -4.082 2.595 -5.882 4.395 C 42.237 70.484 41.579 71.231 40.971 72.01 z M 28.305 89.067 H 15.771 H 2 v -42.3 c 0 -2.395 1.948 -4.342 4.342 -4.342 h 18.164 c 2.395 0 4.342 1.948 4.342 4.342 v 16.864 c -3.35 -0.973 -6.745 -1.042 -9.791 -0.066 c -0.307 0.099 -0.548 0.339 -0.646 0.646 c -2.028 6.32 0.41 14.151 6.211 19.951 c 2.077 2.077 4.446 3.732 6.929 4.904 h -1.704 H 28.305 z M 77.563 89.067 H 66.182 H 50.401 c 2.484 -1.172 4.853 -2.828 6.93 -4.904 c 4.63 -4.63 7.109 -10.552 6.894 -15.968 h 4.69 h 8.649 C 83.318 68.195 88 72.877 88 78.632 C 88 84.386 83.318 89.067 77.563 89.067 z" style="stroke: none; stroke-width: 1; stroke-dasharray: none; stroke-linecap: butt; stroke-linejoin: miter; stroke-miterlimit: 10; fill: rgb(0,0,0); fill-rule: nonzero; opacity: 1;" transform=" matrix(1 0 0 1 0 0) " stroke-linecap="round" />
	<path d="M 7.598 46.702 c -0.552 0 -1 0.447 -1 1 v 26.516 c 0 0.553 0.448 1 1 1 s 1 -0.447 1 -1 V 47.702 C 8.598 47.149 8.15 46.702 7.598 46.702 z" style="stroke: none; stroke-width: 1; stroke-dasharray: none; stroke-linecap: butt; stroke-linejoin: miter; stroke-miterlimit: 10; fill: rgb(0,0,0); fill-rule: nonzero; opacity: 1;" transform=" matrix(1 0 0 1 0 0) " stroke-linecap="round" />
</g>
</svg>