<svg xmlns="http://www.w3.org/2000/svg" xmlns:xlink="http://www.w3.org/1999/xlink" version="1.1" width="256" height="256" viewBox="0 0 256 256" xml:space="preserve">

<defs>
</defs>
<g style="stroke: none; stroke-width: 0; stroke-dasharray: none; stroke-linecap: butt; stroke-linejoin: miter; stroke-miterlimit: 10; fill: none; fill-rule: nonzero; opacity: 1;" transform="translate(1.4065934065934016 1.4065934065934016) scale(2.81 2.81)" >
	<path d="M 88.997 90 c -0.162 0 -0.325 -0.039 -0.475 -0.12 l -13.17 -7.101 c -0.086 -0.046 -0.164 -0.104 -0.232 -0.173 L 43.998 51.484 c -0.391 -0.391 -0.391 -1.023 0 -1.414 c 0.391 -0.391 1.023 -0.391 1.414 0 L 76.43 81.088 l 10.101 5.446 l -5.446 -10.101 L 50.068 45.415 c -0.391 -0.391 -0.391 -1.023 0 -1.414 c 0.391 -0.391 1.023 -0.391 1.414 0 l 31.121 31.122 c 0.068 0.068 0.127 0.146 0.173 0.232 l 7.101 13.17 c 0.21 0.389 0.14 0.869 -0.173 1.182 C 89.512 89.899 89.256 90 88.997 90 z" style="stroke: none; stroke-width: 1; stroke-dasharray: none; stroke-linecap: butt; stroke-linejoin: miter; stroke-miterlimit: 10; fill: rgb(0,0,0); fill-rule: nonzero; opacity: 1;" transform=" matrix(1 0 0 1 0 0) " stroke-linecap="round" />
	<path d="M 38.984 46.056 c -0.256 0 -0.512 -0.098 -0.707 -0.293 L 9.925 17.412 c -0.187 -0.187 -0.293 -0.442 -0.293 -0.707 c 0 -0.265 0.105 -0.52 0.293 -0.707 l 6.07 -6.07 c 0.375 -0.375 1.039 -0.375 1.414 0 L 45.76 38.28 c 0.391 0.391 0.391 1.023 0 1.414 c -0.391 0.391 -1.023 0.391 -1.414 0 L 16.702 12.049 l -4.656 4.656 l 27.645 27.644 c 0.391 0.391 0.391 1.023 0 1.414 C 39.496 45.958 39.24 46.056 38.984 46.056 z" style="stroke: none; stroke-width: 1; stroke-dasharray: none; stroke-linecap: butt; stroke-linejoin: miter; stroke-miterlimit: 10; fill: rgb(0,0,0); fill-rule: nonzero; opacity: 1;" transform=" matrix(1 0 0 1 0 0) " stroke-linecap="round" />
	<path d="M 5.86 20.77 c -1.31 0 -2.619 -0.499 -3.616 -1.496 l -0.746 -0.745 C 0.532 17.563 0 16.278 0 14.912 s 0.532 -2.65 1.498 -3.616 l 9.796 -9.796 c 0.966 -0.966 2.25 -1.498 3.616 -1.498 s 2.651 0.532 3.617 1.498 l 0.746 0.746 c 1.994 1.994 1.994 5.239 0 7.233 l -9.795 9.795 C 8.48 20.271 7.17 20.77 5.86 20.77 z M 14.91 2.003 c -0.832 0 -1.614 0.324 -2.202 0.912 l 0 0 L 2.912 12.71 C 2.324 13.299 2 14.08 2 14.912 c 0 0.832 0.324 1.614 0.912 2.203 l 0.746 0.745 c 1.213 1.214 3.189 1.214 4.405 0 l 9.795 -9.795 c 1.214 -1.214 1.214 -3.19 0 -4.405 l -0.746 -0.746 C 16.524 2.326 15.742 2.003 14.91 2.003 z M 12.001 2.208 h 0.01 H 12.001 z" style="stroke: none; stroke-width: 1; stroke-dasharray: none; stroke-linecap: butt; stroke-linejoin: miter; stroke-miterlimit: 10; fill: rgb(0,0,0); fill-rule: nonzero; opacity: 1;" transform=" matrix(1 0 0 1 0 0) " stroke-linecap="round" />
	<path d="M 8.389 90 c -2.241 0 -4.348 -0.872 -5.932 -2.457 c -3.27 -3.27 -3.27 -8.593 0 -11.864 l 27.502 -27.501 c 0.391 -0.391 1.023 -0.391 1.414 0 l 10.449 10.45 c 0.187 0.187 0.293 0.441 0.293 0.707 c 0 0.266 -0.105 0.52 -0.293 0.707 l -3.463 3.463 c -0.177 0.177 -0.413 0.281 -0.662 0.292 c -2.678 0.12 -5.479 1.455 -7.688 3.662 c -2.207 2.208 -3.542 5.01 -3.662 7.688 c -0.011 0.249 -0.115 0.485 -0.292 0.662 L 14.32 87.543 C 12.736 89.128 10.63 90 8.389 90 z M 30.665 50.299 L 3.871 77.093 c -2.491 2.491 -2.491 6.545 0 9.036 C 5.078 87.336 6.682 88 8.389 88 s 3.311 -0.664 4.517 -1.871 l 11.467 -11.467 c 0.248 -3.047 1.771 -6.167 4.222 -8.617 c 2.451 -2.45 5.571 -3.973 8.617 -4.221 l 2.489 -2.489 L 30.665 50.299 z" style="stroke: none; stroke-width: 1; stroke-dasharray: none; stroke-linecap: butt; stroke-linejoin: miter; stroke-miterlimit: 10; fill: rgb(0,0,0); fill-rule: nonzero; opacity: 1;" transform=" matrix(1 0 0 1 0 0) " stroke-linecap="round" />
	<path d="M 7.298 83.702 c -0.256 0 -0.512 -0.098 -0.707 -0.293 c -0.391 -0.391 -0.391 -1.023 0 -1.414 l 25.377 -25.377 c 0.391 -0.391 1.023 -0.391 1.414 0 c 0.391 0.391 0.391 1.023 0 1.414 L 8.005 83.409 C 7.81 83.604 7.554 83.702 7.298 83.702 z" style="stroke: none; stroke-width: 1; stroke-dasharray: none; stroke-linecap: butt; stroke-linejoin: miter; stroke-miterlimit: 10; fill: rgb(0,0,0); fill-rule: nonzero; opacity: 1;" transform=" matrix(1 0 0 1 0 0) " stroke-linecap="round" />
	<path d="M 38.632 57.85 c -0.256 0 -0.512 -0.098 -0.707 -0.293 l -5.721 -5.721 c -0.187 -0.187 -0.293 -0.441 -0.293 -0.707 c 0 -0.266 0.105 -0.52 0.293 -0.707 l 16.236 -16.236 c 0.391 -0.391 1.023 -0.391 1.414 0 c 0.391 0.391 0.391 1.023 0 1.414 L 34.324 51.13 l 4.307 4.306 L 54.16 39.908 c 0.391 -0.391 1.023 -0.391 1.414 0 c 0.391 0.391 0.391 1.023 0 1.414 L 39.339 57.557 C 39.143 57.753 38.887 57.85 38.632 57.85 z" style="stroke: none; stroke-width: 1; stroke-dasharray: none; stroke-linecap: butt; stroke-linejoin: miter; stroke-miterlimit: 10; fill: rgb(0,0,0); fill-rule: nonzero; opacity: 1;" transform=" matrix(1 0 0 1 0 0) " stroke-linecap="round" />
	<path d="M 69.976 52.947 c -0.782 0 -1.566 -0.232 -2.246 -0.708 l 0 0 c -11.704 -8.183 -21.787 -18.266 -29.969 -29.97 c -1.096 -1.566 -0.902 -3.693 0.462 -5.057 L 54.266 1.17 c 1.364 -1.363 3.49 -1.557 5.057 -0.463 c 11.704 8.183 21.787 18.266 29.97 29.97 c 1.096 1.567 0.9 3.694 -0.463 5.058 L 72.788 51.776 C 72.015 52.549 70.998 52.947 69.976 52.947 z M 68.877 50.601 c 0.769 0.536 1.82 0.44 2.497 -0.238 L 87.416 34.32 c 0.677 -0.677 0.776 -1.727 0.238 -2.498 c -8.049 -11.51 -17.966 -21.428 -29.478 -29.477 c -0.77 -0.538 -1.82 -0.438 -2.497 0.238 L 39.637 18.626 c -0.677 0.677 -0.777 1.727 -0.238 2.497 C 47.448 32.634 57.365 42.552 68.877 50.601 L 68.877 50.601 z" style="stroke: none; stroke-width: 1; stroke-dasharray: none; stroke-linecap: butt; stroke-linejoin: miter; stroke-miterlimit: 10; fill: rgb(0,0,0); fill-rule: nonzero; opacity: 1;" transform=" matrix(1 0 0 1 0 0) " stroke-linecap="round" />
</g>
</svg>