<svg xmlns="http://www.w3.org/2000/svg" xmlns:xlink="http://www.w3.org/1999/xlink" version="1.1" width="256" height="256" viewBox="0 0 256 256" xml:space="preserve">

<defs>
</defs>
<g style="stroke: none; stroke-width: 0; stroke-dasharray: none; stroke-linecap: butt; stroke-linejoin: miter; stroke-miterlimit: 10; fill: none; fill-rule: nonzero; opacity: 1;" transform="translate(1.4065934065934016 1.4065934065934016) scale(2.81 2.81)" >
	<path d="M 89 61.468 h -7.569 V 20.563 c 0 -1.889 -1.536 -3.425 -3.425 -3.425 H 13.478 c -1.889 0 -3.425 1.536 -3.425 3.425 v 40.904 H 1 c -0.552 0 -1 0.447 -1 1 v 3.379 c 0 3.868 3.147 7.015 7.015 7.015 h 75.97 c 3.868 0 7.015 -3.146 7.015 -7.015 v -3.379 C 90 61.915 89.553 61.468 89 61.468 z M 12.052 20.563 c 0 -0.786 0.639 -1.425 1.425 -1.425 h 64.528 c 0.785 0 1.425 0.639 1.425 1.425 v 40.904 H 55.118 H 37.412 H 12.052 V 20.563 z M 38.412 63.468 h 15.707 v 2.697 H 38.412 V 63.468 z M 88 65.847 c 0 2.765 -2.25 5.015 -5.015 5.015 H 7.015 C 4.25 70.861 2 68.611 2 65.847 v -2.379 h 9.052 h 25.359 v 3.697 c 0 0.553 0.448 1 1 1 h 17.707 c 0.553 0 1 -0.447 1 -1 v -3.697 h 24.313 H 88 V 65.847 z" style="stroke: none; stroke-width: 1; stroke-dasharray: none; stroke-linecap: butt; stroke-linejoin: miter; stroke-miterlimit: 10; fill: rgb(0,0,0); fill-rule: nonzero; opacity: 1;" transform=" matrix(1 0 0 1 0 0) " stroke-linecap="round" />
	<path d="M 75.57 56.607 V 23.999 c 0 -0.552 -0.447 -1 -1 -1 H 16.913 c -0.552 0 -1 0.448 -1 1 v 32.608 c 0 0.553 0.448 1 1 1 H 74.57 C 75.123 57.607 75.57 57.16 75.57 56.607 z M 73.57 55.607 H 17.913 V 24.999 H 73.57 V 55.607 z" style="stroke: none; stroke-width: 1; stroke-dasharray: none; stroke-linecap: butt; stroke-linejoin: miter; stroke-miterlimit: 10; fill: rgb(0,0,0); fill-rule: nonzero; opacity: 1;" transform=" matrix(1 0 0 1 0 0) " stroke-linecap="round" />
	<path d="M 37.27 39.583 c -0.391 0.391 -0.391 1.023 0 1.414 s 1.023 0.391 1.414 0 c 2.025 -2.025 4.717 -3.14 7.581 -3.14 c 2.864 0 5.556 1.115 7.581 3.14 c 0.195 0.195 0.451 0.293 0.707 0.293 s 0.512 -0.098 0.707 -0.293 c 0.391 -0.391 0.391 -1.023 0 -1.414 C 50.302 34.624 42.23 34.623 37.27 39.583 z" style="stroke: none; stroke-width: 1; stroke-dasharray: none; stroke-linecap: butt; stroke-linejoin: miter; stroke-miterlimit: 10; fill: rgb(0,0,0); fill-rule: nonzero; opacity: 1;" transform=" matrix(1 0 0 1 0 0) " stroke-linecap="round" />
	<path d="M 41.414 43.727 c -0.391 0.391 -0.391 1.023 0 1.414 s 1.023 0.391 1.414 0 c 1.896 -1.895 4.98 -1.894 6.874 0 c 0.195 0.195 0.451 0.293 0.707 0.293 s 0.512 -0.098 0.707 -0.293 c 0.391 -0.391 0.391 -1.024 0 -1.414 C 48.441 41.052 44.089 41.052 41.414 43.727 z" style="stroke: none; stroke-width: 1; stroke-dasharray: none; stroke-linecap: butt; stroke-linejoin: miter; stroke-miterlimit: 10; fill: rgb(0,0,0); fill-rule: nonzero; opacity: 1;" transform=" matrix(1 0 0 1 0 0) " stroke-linecap="round" />
	<path d="M 34.54 36.853 c 3.132 -3.132 7.296 -4.856 11.725 -4.856 c 4.43 0 8.593 1.725 11.725 4.856 c 0.195 0.195 0.451 0.293 0.707 0.293 s 0.512 -0.098 0.707 -0.293 c 0.391 -0.391 0.391 -1.023 0 -1.414 c -3.509 -3.509 -8.175 -5.442 -13.139 -5.442 c -4.963 0 -9.629 1.933 -13.139 5.442 c -0.391 0.391 -0.391 1.023 0 1.414 S 34.149 37.244 34.54 36.853 z" style="stroke: none; stroke-width: 1; stroke-dasharray: none; stroke-linecap: butt; stroke-linejoin: miter; stroke-miterlimit: 10; fill: rgb(0,0,0); fill-rule: nonzero; opacity: 1;" transform=" matrix(1 0 0 1 0 0) " stroke-linecap="round" />
	<path d="M 46.265 47.406 c -0.755 0 -1.368 0.612 -1.368 1.368 s 0.612 1.368 1.368 1.368 c 0.755 0 1.368 -0.612 1.368 -1.368 S 47.02 47.406 46.265 47.406 z" style="stroke: none; stroke-width: 1; stroke-dasharray: none; stroke-linecap: butt; stroke-linejoin: miter; stroke-miterlimit: 10; fill: rgb(0,0,0); fill-rule: nonzero; opacity: 1;" transform=" matrix(1 0 0 1 0 0) " stroke-linecap="round" />
</g>
</svg>